<svg viewBox="0 0 140 140" height="140" width="140" xmlns="http://www.w3.org/2000/svg"><g transform="matrix(5.833333333333333,0,0,5.833333333333333,0,0)"><path d="M11,10.5V9.249A.25.25,0,0,1,11.25,9h.25a2,2,0,0,0,2-2V2a2,2,0,0,0-2-2H2A2,2,0,0,0,0,2V7A2,2,0,0,0,2,9H6.982a.25.25,0,0,1,.177.074l2.134,2.133A1,1,0,0,0,11,10.5ZM10,7A1,1,0,0,0,9,8a.036.036,0,0,1-.061.026l-.732-.733A1,1,0,0,0,7.5,7h-5A.5.5,0,0,1,2,6.5v-4A.5.5,0,0,1,2.5,2H11a.5.5,0,0,1,.5.5v4A.5.5,0,0,1,11,7Z" fill="#000" stroke="none" stroke-linecap="round" stroke-linejoin="round" stroke-width="0"></path><path d="M22,12.5H12.5a2,2,0,0,0-2,2v5a2,2,0,0,0,2,2h.25a.25.25,0,0,1,.25.25V23a1,1,0,0,0,.617.924,1,1,0,0,0,1.09-.217l2.134-2.133a.25.25,0,0,1,.177-.074H22a2,2,0,0,0,2-2v-5A2,2,0,0,0,22,12.5ZM22,19a.5.5,0,0,1-.5.5h-5a1,1,0,0,0-.707.293l-.732.733A.036.036,0,0,1,15,20.5a1,1,0,0,0-1-1H13a.5.5,0,0,1-.5-.5V15a.5.5,0,0,1,.5-.5h8.5a.5.5,0,0,1,.5.5Z" fill="#000" stroke="none" stroke-linecap="round" stroke-linejoin="round" stroke-width="0"></path><path d="M14,11a.5.5,0,0,0,.5.5h9A.5.5,0,0,0,24,11a3.608,3.608,0,0,0-2.344-3.532.25.25,0,0,1-.066-.421,4,4,0,1,0-5.18,0,.25.25,0,0,1-.066.421A3.608,3.608,0,0,0,14,11ZM17.08,3.44a.246.246,0,0,1,.148-.163.25.25,0,0,1,.22.018A4.949,4.949,0,0,0,20,4a4.95,4.95,0,0,0,.9-.082.089.089,0,0,1,.069.018A.085.085,0,0,1,21,4a2,2,0,1,1-3.92-.559Z" fill="#000" stroke="none" stroke-linecap="round" stroke-linejoin="round" stroke-width="0"></path><path d="M7.656,19.967a.25.25,0,0,1-.066-.421,4,4,0,1,0-5.18,0,.25.25,0,0,1-.066.421A3.608,3.608,0,0,0,0,23.5a.5.5,0,0,0,.5.5h9a.5.5,0,0,0,.5-.5A3.608,3.608,0,0,0,7.656,19.967ZM3.08,15.94a.246.246,0,0,1,.148-.163.25.25,0,0,1,.22.018,4.981,4.981,0,0,0,3.453.622.089.089,0,0,1,.069.018A.085.085,0,0,1,7,16.5a2,2,0,1,1-3.92-.559Z" fill="#000" stroke="none" stroke-linecap="round" stroke-linejoin="round" stroke-width="0"></path></g></svg>