<svg xmlns="http://www.w3.org/2000/svg" viewBox="0 0 140 140" height="140" width="140"><g transform="matrix(5.833333333333333,0,0,5.833333333333333,0,0)"><defs><style>.c{fill:none;stroke:#191919;stroke-linecap:round;stroke-linejoin:round}</style></defs><path d="M12 1C5.649 1 .5 5.253.5 10.5a8.738 8.738 0 0 0 3.4 6.741L1.5 23l6.372-3.641A13.608 13.608 0 0 0 12 20c6.351 0 11.5-4.253 11.5-9.5S18.351 1 12 1z" style="fill:#ffef5e"></path><path d="M12 5a14.371 14.371 0 0 1 11.5 5.265C23.346 5.127 18.256 1 12 1S.654 5.127.5 10.265A14.371 14.371 0 0 1 12 5z" style="fill:#fff9bf"></path><path class="c" d="M12 1C5.649 1 .5 5.253.5 10.5a8.738 8.738 0 0 0 3.4 6.741L1.5 23l6.372-3.641A13.608 13.608 0 0 0 12 20c6.351 0 11.5-4.253 11.5-9.5S18.351 1 12 1zm0 11.001v-7"></path><path class="c" d="M12 14.25a.25.25 0 1 1-.25.25.25.25 0 0 1 .25-.25"></path></g></svg>