<svg xmlns="http://www.w3.org/2000/svg" viewBox="0 0 140 140" height="140" width="140"><g transform="matrix(5.833333333333333,0,0,5.833333333333333,0,0)"><defs><style>.g{stroke:#191919;stroke-linecap:round;stroke-linejoin:round;fill:none}</style></defs><path d="M18.5 21.5a2 2 0 0 1-2 2h-14a2 2 0 0 1-2-2v-19a2 2 0 0 1 2-2h14a2 2 0 0 1 2 2z" style="fill:#66e1ff"></path><path d="M13.5 2.5h2a1 1 0 0 1 1 1v17a1 1 0 0 1-1 1h-12a1 1 0 0 1-1-1v-17a1 1 0 0 1 1-1h2" style="fill:#e3e3e3"></path><path transform="rotate(-44.975 15.283 11.515)" style="stroke:#191919;stroke-linecap:round;stroke-linejoin:round;fill:#ffef5e" d="M7.283 10.016h16.002v2.998H7.283z"></path><path d="M23.064 5.86 22 6.92 19.884 4.8l1.06-1.06a1.491 1.491 0 0 1 2.12 0 1.509 1.509 0 0 1 0 2.12z" style="fill:#ff808c;stroke:#191919;stroke-linecap:round;stroke-linejoin:round"></path><path d="M16.228 2.822A.988.988 0 0 0 15.5 2.5h-12a1 1 0 0 0-1 1v13.049z" style="fill:#ffffff"></path><path d="M8.566 16.111 7.3 19.5l3.389-1.268-2.123-2.121z" style="fill:#ffbc44;stroke:#191919;stroke-linecap:round;stroke-linejoin:round"></path><path class="g" d="m4.5 11.5.366.732a.484.484 0 0 0 .776.126L7.5 10.5m2 1h1"></path><path d="M5.5.5h8v2a1 1 0 0 1-1 1h-6a1 1 0 0 1-1-1z" style="stroke:#191919;stroke-linecap:round;stroke-linejoin:round;fill:#e3e3e3"></path><path class="g" d="m4.5 7.5.366.732a.484.484 0 0 0 .776.126L7.5 6.5m2 1h4"></path><path class="g" d="M18.5 13.5v8a2 2 0 0 1-2 2h-14a2 2 0 0 1-2-2v-19a2 2 0 0 1 2-2h14a2 2 0 0 1 2 2v1"></path><path class="g" d="M16.5 15.5v5a1 1 0 0 1-1 1h-12a1 1 0 0 1-1-1v-17a1 1 0 0 1 1-1h2m8 0h2a1 1 0 0 1 1 1v2"></path></g></svg>