<svg xmlns="http://www.w3.org/2000/svg" viewBox="0 0 140 140" height="140" width="140"><g transform="matrix(5.833333333333333,0,0,5.833333333333333,0,0)"><defs><style>.b,.c{fill:#ffdda1;stroke:#191919;stroke-linecap:round;stroke-linejoin:round}.c{fill:#66e1ff}</style></defs><circle cx="12" cy="11.5" r="6.5" style="fill:#eabfff"></circle><path class="b" d="M12 5a2.25 2.25 0 1 0-2.25-2.25A2.25 2.25 0 0 0 12 5z"></path><path class="c" d="M16.5 9.5a4.644 4.644 0 0 0-9 0z"></path><path class="b" d="M5 19a2.25 2.25 0 1 0-2.25-2.25A2.25 2.25 0 0 0 5 19z"></path><path class="c" d="M9.5 23.5a4.644 4.644 0 0 0-9 0z"></path><path class="b" d="M19 19a2.25 2.25 0 1 0-2.25-2.25A2.25 2.25 0 0 0 19 19z"></path><path class="c" d="M23.5 23.5a4.644 4.644 0 0 0-9 0z"></path><path d="M15 18.918a8.023 8.023 0 0 1-6 0m7.5-14.032a8.011 8.011 0 0 1 3.438 7.614M7.5 4.886A8.011 8.011 0 0 0 4.062 12.5" style="fill:none;stroke:#191919;stroke-linecap:round;stroke-linejoin:round"></path></g></svg>