<svg height="306" viewBox="0 0 349.56 287.81" width="406" xmlns="http://www.w3.org/2000/svg" xmlns:xlink="http://www.w3.org/1999/xlink"><linearGradient id="a" gradientTransform="matrix(1 0 0 -1 0 352)" gradientUnits="userSpaceOnUse" x1="277.57" x2="310.98" y1="148.16" y2="31.41"><stop offset=".01"/><stop offset=".08" stop-opacity=".69"/><stop offset=".21" stop-opacity=".32"/><stop offset="1" stop-opacity="0"/></linearGradient><linearGradient id="b" gradientTransform="matrix(1 0 0 -1 -26.39 328.48)" x1="240.46" x2="299.59" xlink:href="#a" y1="168.79" y2="96.15"/><linearGradient id="c" x1="242.97" x2="290.27" xlink:href="#a" y1="208.75" y2="103.45"/><linearGradient id="d" x1="93.46" x2="201.02" xlink:href="#a" y1="203.16" y2="80.4"/><linearGradient id="e" gradientTransform="matrix(-1 0 0 1 -1047.16 360.29)" gradientUnits="userSpaceOnUse" x1="-1227.2" x2="-1193.25" y1="-205.25" y2="-205.25"><stop offset="0" stop-color="#e5c5d5"/><stop offset=".42" stop-color="#ead4d1"/><stop offset="1" stop-color="#f0e9cb"/></linearGradient><linearGradient id="f" x1="26.11" x2="198.18" xlink:href="#a" y1="5.47" y2="177.53"/><linearGradient id="g" gradientTransform="matrix(1 0 0 -1 0 352)" gradientUnits="userSpaceOnUse" x1="42.25" x2="117.33" y1="98.59" y2="98.59"><stop offset="0" stop-opacity="0"/><stop offset=".99"/></linearGradient><linearGradient id="h" gradientTransform="matrix(1 0 0 -1 -26.39 328.48)" x1="250.87" x2="362.37" xlink:href="#a" y1="222.62" y2="53.68"/><linearGradient id="i" gradientTransform="matrix(.96 .27 -.27 .96 307.74 442.77)" gradientUnits="userSpaceOnUse" x1="-153.53" x2="-147.12" y1="-266.7" y2="-266.7"><stop offset="0" stop-color="#e3c5d5"/><stop offset=".42" stop-color="#e8d3cf"/><stop offset="1" stop-color="#efe8cb"/></linearGradient><linearGradient id="j" gradientTransform="translate(244.13 394.71)" gradientUnits="userSpaceOnUse" x1="-9.71" x2="-6.92" y1="-246.95" y2="-262.08"><stop offset="0" stop-color="#010101" stop-opacity="0"/><stop offset=".95" stop-color="#010101"/></linearGradient><linearGradient id="k" gradientTransform="translate(244.13 394.71)" x1="-14.99" x2="-4.33" xlink:href="#i" y1="-255.44" y2="-255.44"/><linearGradient id="l" x1="-5.46" x2="-8.18" xlink:href="#j" y1="-256.14" y2="-256.46"/><linearGradient id="m" gradientTransform="translate(244.13 394.71)" x1="39.47" x2="46.06" xlink:href="#i" y1="-214.31" y2="-214.31"/><linearGradient id="n" x1="41.68" x2="51.52" xlink:href="#j" y1="-212.92" y2="-226.46"/><linearGradient id="o" gradientTransform="matrix(.99 .16 -.16 .99 288.9 421.81)" x1="-47.51" x2="-36.02" xlink:href="#i" y1="-244.73" y2="-244.73"/><linearGradient id="p" gradientTransform="translate(244.13 394.71)" x1="39.47" x2="46.06" xlink:href="#i" y1="-249.9" y2="-249.9"/><linearGradient id="q" x1="41.68" x2="51.52" xlink:href="#j" y1="-248.51" y2="-262.05"/><linearGradient id="r" gradientTransform="matrix(.99 .16 -.16 .99 288.9 421.81)" x1="-53.18" x2="-41.69" xlink:href="#i" y1="-279.77" y2="-279.77"/><linearGradient id="s" x1="-12.99" x2="-13.22" xlink:href="#j" y1="-215.5" y2="-227.05"/><linearGradient id="t" x1="-17.48" x2="-16.24" xlink:href="#j" y1="-222.44" y2="-223.12"/><path d="m375.64 248.91a68.27 68.27 0 0 1 -27.38 47.94q-2.1 1.54-4.32 2.91c-14.79 9.07-32.09 11.9-49.63 11.53a194.32 194.32 0 0 1 -29.08-3.06l-5.66-1c-1.89-.33-3.79-.73-5.68-1.11-11.37-2.26-22.73-4.78-34.13-6.54a180.1 180.1 0 0 0 -22.59-2.18h-.17c-3.91-.11-7.83 0-11.75.24a164.94 164.94 0 0 0 -19.42 2.72c-3 .55-5.92 1.16-8.87 1.76s-5.64 1.16-8.47 1.71c-5.37 1-10.53 1.95-15.53 2.67a166.16 166.16 0 0 1 -18.76 1.72 105.92 105.92 0 0 1 -10.69-.17 90.39 90.39 0 0 1 -20.51-3.67c-11.39-1.28-33.78-12.31-40.12-22.5-6.75-10.88-10.15-23.36-12.53-35.88-.45-2.4-.88-4.8-1.27-7.19-.18-1.1-.36-2.2-.53-3.29-2.55-15.67-3.68-27.71 1.45-43.22 9.06-27.63 30.35-51.42 57.56-62.09 15.61-6.13 33-8.39 46.72-18.1 22.72-16.11 28.72-48.17 49.55-66.79 15.41-13.78 36.87-18.38 57.45-20.48 17.23-1.77 34.78-2.14 51.77 1.31 19.82 4 42.52 14.2 52.83 32.42 11.05 19.52 14 42.86 12.15 64.94-1.25 14.92-4.74 30.64-1.4 45.52 2.73 12.11 9.51 23 12.81 35.19 3.95 14.6 7.63 29.64 6.2 44.69z" fill="#00bcd4" opacity=".18" transform="translate(-26.39 -23.52)"/><path d="m342.58 246v50.86q-2.1 1.54-4.32 2.91c-13.19 8.09-28.38 11.21-43.95 11.53a194.32 194.32 0 0 1 -29.08-3.06l-5.66-1c-1.89-.33-3.79-.73-5.68-1.11v-60.13z" fill="#00bcd4" transform="translate(-26.39 -23.52)"/><path d="m342.58 246v50.86q-2.1 1.54-4.32 2.91c-13.19 8.09-28.38 11.21-43.95 11.53a194.32 194.32 0 0 1 -29.08-3.06l-5.66-1c-1.89-.33-3.79-.73-5.68-1.11v-60.13z" fill="url(#a)" transform="translate(-26.39 -23.52)"/><path d="m274.29 215.28h-45.42l-8.26-35.17h45.42z" fill="#00bcd4"/><path d="m271.85 215.28h-45.42l-8.26-35.17h45.42z" fill="#00bcd4"/><path d="m271.85 215.28h-45.42l-8.26-35.17h45.42z" fill="url(#b)"/><rect fill="#00bcd4" height="102.21" rx="14.13" width="160.49" x="164.76" y="88.98"/><rect fill="#4c506d" height="102.21" rx="14.13" width="160.49" x="161.39" y="88.98"/><path d="m348.26 194.43v6.14a14.13 14.13 0 0 1 -14.13 14.13h-132.23a14.13 14.13 0 0 1 -14.13-14.13v-6.14z" fill="url(#c)" transform="translate(-26.39 -23.52)"/><path d="m199.25 286.57a26.14 26.14 0 0 1 -2.08 10.79h-.17c-3.91-.11-7.83 0-11.75.24a164.94 164.94 0 0 0 -19.42 2.72c-3 .55-5.92 1.16-8.87 1.76s-5.64 1.16-8.47 1.71c-5.37 1-10.53 1.95-15.53 2.67a47.61 47.61 0 0 1 -17-12.17c-.51-.57-1-1.15-1.48-1.74-.61-.77-1.19-1.57-1.73-2.41a18.26 18.26 0 0 1 -3.09-7.86 11.66 11.66 0 0 1 .12-3.44c.75-3.93 3.62-7.06 6.86-9.47.35-.26.7-.52 1.06-.76a40 40 0 0 1 24.37-7.1c.72 0 1.45.06 2.17.11a75 75 0 0 1 13.76 2.38c7.12 1.82 14.23 4.37 21.26 6.62a56.68 56.68 0 0 1 14.79 6.31 12.64 12.64 0 0 1 3.39 3.21 12 12 0 0 1 1.81 6.43z" fill="#3e3e54" transform="translate(-26.39 -23.52)"/><path d="m197 297.36c-3.91-.11-7.83 0-11.75.24a164.94 164.94 0 0 0 -19.42 2.72c-3 .55-5.92 1.16-8.87 1.76s-5.64 1.16-8.47 1.71c-15.14 2.95-29.14 6.34-44.72 3.44a6.37 6.37 0 0 1 -2.61-.91 6 6 0 0 1 -1.89-3.12 27.57 27.57 0 0 1 1.63-20.69c3.8-7.49 9.83-10.46 16.88-14 8.13-4.12 15-7.23 24.37-7 .72 0 1.45.06 2.17.11a76.51 76.51 0 0 1 13.68 2.38c7 1.82 14.07 4.34 21 6.57a56.39 56.39 0 0 1 14.79 6.31 12.48 12.48 0 0 1 3.4 3.2 12.08 12.08 0 0 1 1.79 6.38 26 26 0 0 1 -1.98 10.9z" fill="#3e3e54" transform="translate(-26.39 -23.52)"/><path d="m219.76 299.54a180.1 180.1 0 0 0 -22.59-2.18h-.17c-3.91-.11-7.83 0-11.75.24a164.94 164.94 0 0 0 -19.42 2.72c-3 .55-5.92 1.16-8.87 1.76-8.45-1.51-17-2.73-25.36-4.58a28.41 28.41 0 0 1 -11.6-4.61 13.24 13.24 0 0 1 -2.35-2.38 11.38 11.38 0 0 1 -.84-1.25 10.07 10.07 0 0 1 -1.48-5.81 7.25 7.25 0 0 1 .28-1.6 13.89 13.89 0 0 1 6.09-7.1 28.71 28.71 0 0 1 14.42-5.32c3.49-.19 7 .51 10.44.32 3.1-.17 5.24-1.89 8-2.3a15.35 15.35 0 0 1 6.25.55c4.73 1.3 9.61 4.14 13.32 6l25 12.48.19.09 5 2.5a72.27 72.27 0 0 1 13.26 7.93 4.58 4.58 0 0 1 2.18 2.54z" fill="#3e3e54" transform="translate(-26.39 -23.52)"/><path d="m320.52 238.8v7.2h-290.17c-.45-2.4-.88-4.8-1.27-7.19z" fill="#00bcd4" transform="translate(-26.39 -23.52)"/><path d="m320.52 238.8v7.2h-290.17c-.45-2.4-.88-4.8-1.27-7.19z" fill="url(#d)" transform="translate(-26.39 -23.52)"/><path d="m174 137.37c-3.46-3.07-10.7-3.81-14-.42-2.44 2.5-2.6 6.4-3.2 9.87a31.16 31.16 0 0 1 -6.11 13.69c-1.68 2.14-3.7 4.16-4.42 6.77a3.9 3.9 0 0 0 0 2.61 5.24 5.24 0 0 0 2.16 2.09 19.69 19.69 0 0 0 6.88 3.2 6.73 6.73 0 0 0 6.8-2.37c.58-.86 1-2 2-2.34 1.3-.41 2.47.85 3.73 1.35 2.13.81 4.57-.72 5.63-2.74a20.56 20.56 0 0 0 1.6-6.64 8.79 8.79 0 0 1 2.93-6c.69-.51 1.57-.89 1.91-1.68.61-1.46-1-2.79-2-4-3.07-4 .01-10.12-3.91-13.39z" fill="url(#e)" transform="translate(-26.39 -23.52)"/><path d="m172.91 123.24c-4.35-5-11-7.83-16.68-4.34-2.14 1.32-3.84 3.31-6.09 4.42a19.93 19.93 0 0 1 -4.33 1.34c-3.86.92-7.86 2.22-10.47 5.2s-3.1 8.12-.05 10.65a4.44 4.44 0 0 0 .36 5.73 19.77 19.77 0 0 0 3 1.95c3 2 3 4.25 2.77 7.29a2.49 2.49 0 0 0 .59 1.37l2.74 4c.95 1.35 2.21 2.79 3.82 2.79 2.38-.11 3.6-3.45 6-3.65a10.33 10.33 0 0 1 3 .7c1 .24 2.36-.05 2.61-1.06a5.74 5.74 0 0 1 -2.46-7.48c.57-1.12 2-2.07 3-1.33.61.45.76 1.28 1.11 2s1.36 1.17 1.81.56c1.33-3.13-.08-6.88.9-10.08a7.25 7.25 0 0 1 6.41-5c1.25-.1 2.51.16 3.76 0a3 3 0 0 0 2.73-2.21c.65-4.36-1.31-9.18-4.53-12.85z" fill="#3e3e54" transform="translate(-26.39 -23.52)"/><path d="m139.61 169.53a2.78 2.78 0 0 0 -.46 2.35 2.14 2.14 0 0 0 2 1.09c5.67.55 11.59 1.33 16.89 4.1 1.15.55 2.66 1.14 3.46 0a2.79 2.79 0 0 0 0-2.69 5.75 5.75 0 0 0 -1.75-1.89 66 66 0 0 0 -7.19-4.61c-4.63-2.73-9.39-4.17-12.95 1.65z" fill="#00bcd4" transform="translate(-26.39 -23.52)"/><path d="m157.43 262.92c2.7 5.38 8.36 8.66 2.7 14.09-10 9.63-27.67 13.67-41.06 13.54-9-.08-18.25-2.14-25.3-7.7a14.46 14.46 0 0 1 -4.88-6.14 17.31 17.31 0 0 1 -.8-5c-1.77-31.58 9.43-62.68 25.23-90.07 3-5.24 7-10.9 12.94-11.78a20.31 20.31 0 0 1 6.41.4 362.92 362.92 0 0 1 41.55 9.74 10.67 10.67 0 0 1 7.7 5.62l21.59 33.07c3.12 4.78 6.36 10 6 15.69a7.69 7.69 0 0 1 -1.6 4.61 9.85 9.85 0 0 1 -6 2.63 52.24 52.24 0 0 1 -23.54-1.6c4.26-3.27 2.92-10.06.11-14.65a35.94 35.94 0 0 0 -7-8.26 106.35 106.35 0 0 1 -8.8 25.77c-3 6.12-8.68 13.26-5.25 20.04z" fill="#00bcd4" transform="translate(-26.39 -23.52)"/><path d="m95.93 220.64c.55-2.06 2.15-8.6 4.11-12.2 7.81 5.57 13.54 16.44 16.43 25.59s5.24 18.77 11.11 26.35l6.36-2.21 1.18 4c.94 3.16-1.73 6.41-1.46 9.61s3.49 6 6.53 6.84c3.66 1 7.56.18 11.23-.79a16.93 16.93 0 0 0 6.58-2.83c1.85-1.52 3.07-4.06 2.38-6.35a4.06 4.06 0 0 1 1.74 4.63 8.94 8.94 0 0 1 -3 4.3c-4.44 3.9-10.09 6.07-15.61 8.16a81.74 81.74 0 0 1 -8.08 2.75c-6.24 1.65-12.77 1.81-19.22 2-3.92.09-6.27-.52-8-4.4-2.48-5.53-2.66-11.77-3.26-17.81a313.36 313.36 0 0 0 -9.02-47.64z" fill="url(#f)" transform="translate(-26.39 -23.52)"/><path d="m117.33 278.58q0 2.58-.12 5.25c-.09 1.77-.25 3.58-.47 5.43l-.15 1.21c-.17 1.26-.36 2.53-.59 3.82a.33.33 0 0 0 0 .14c-.13.71-.27 1.43-.41 2.16a21.33 21.33 0 0 1 -1.44 11.6 105.92 105.92 0 0 1 -10.69-.17 90 90 0 0 1 -20.46-3.64 81.47 81.47 0 0 1 -18.65-13.13 13.6 13.6 0 0 1 -3.59-4.81 16.29 16.29 0 0 1 -.61-6.17 116.83 116.83 0 0 0 -4.53-34.27c-.69-2.42-1.47-4.82-2.32-7.19-1-2.69-2-5.34-3.19-8-2.74-6.17-6.06-12.19-7.31-18.82a30.81 30.81 0 0 1 -.12-11 2.92 2.92 0 0 1 .7-1.76 3 3 0 0 1 2.28-.63c8.34.23 15.92 5 24.16 6.41 4.23.72 8.62.53 12.73 1.75 5.85 1.72 10.35 6 13.9 11a62 62 0 0 1 4.86 8.35c2.14 4.35 4.14 8.51 6 12.56 1.08 2.43 2.09 4.82 3 7.19a97 97 0 0 1 6.37 23.23v.15a74.91 74.91 0 0 1 .65 9.34z" fill="#3e3e54" transform="translate(-26.39 -23.52)"/><path d="m117.33 278.58q0 2.58-.12 5.25c-.09 1.77-.25 3.58-.47 5.43l-.15 1.21c-.17 1.26-.36 2.53-.59 3.82a.33.33 0 0 0 0 .14c-.13.71-.27 1.43-.41 2.16a21.33 21.33 0 0 1 -1.44 11.6 105.92 105.92 0 0 1 -10.69-.17 90 90 0 0 1 -20.46-3.64 81.47 81.47 0 0 1 -18.65-13.13 13.6 13.6 0 0 1 -3.59-4.81 16.29 16.29 0 0 1 -.61-6.17 116.83 116.83 0 0 0 -4.53-34.27c-.69-2.42-1.47-4.82-2.32-7.19-1-2.69-2-5.34-3.19-8-2.74-6.17-6.06-12.19-7.31-18.82a30.81 30.81 0 0 1 -.12-11 2.92 2.92 0 0 1 .7-1.76 3 3 0 0 1 2.28-.63c8.34.23 15.92 5 24.16 6.41 4.23.72 8.62.53 12.73 1.75 5.85 1.72 10.35 6 13.9 11a62 62 0 0 1 4.86 8.35c2.14 4.35 4.14 8.51 6 12.56 1.08 2.43 2.09 4.82 3 7.19a97 97 0 0 1 6.37 23.23v.15a74.91 74.91 0 0 1 .65 9.34z" fill="url(#g)" transform="translate(-26.39 -23.52)"/><path d="m252.89 215.28h92.35v7.19h-92.35z" fill="#00bcd4"/><path d="m252.89 215.28h92.35v7.19h-92.35z" fill="url(#h)"/><path d="m348.26 246v50.86q-2.1 1.54-4.32 2.91c-23 14.11-52.13 13.12-78.71 8.47l-5.66-1v-61.24z" fill="#00bcd4" transform="translate(-26.39 -23.52)"/><path d="m183.17 98.79h49.51v32.23h-49.51z" fill="#fff"/><path d="m220.12 152.39a10.67 10.67 0 0 1 9.42-5c1.31 0 2.63.09 3.93.09 3.76 0 9.42-1.31 12.66.62 1.34.79 2.46 4.37 3.12 5.79a.85.85 0 0 1 .05.88c-.19.25-.48.23-.75.23-6.67-.07-13.32 0-20 0h-9.36a5.45 5.45 0 0 1 .93-2.61z" fill="#00bcd4" transform="translate(-26.39 -23.52)"/><path d="m233.22 149a3.43 3.43 0 0 0 1 .53 4.68 4.68 0 0 0 2.34.31 2.17 2.17 0 0 0 1.73-1.45 3.08 3.08 0 0 0 0-1.21l-.16-1.44a4.9 4.9 0 0 0 -.52-2.06 2.55 2.55 0 0 0 -3.09-1 3.38 3.38 0 0 0 -1.6 1.69c-.72 1.63-1.29 3.33.3 4.63z" fill="url(#i)" transform="translate(-26.39 -23.52)"/><path d="m237.64 143.68s-1.52 4.38-3.72 4.38-1.62-2.13-1.62-2.13z" fill="url(#j)" transform="translate(-26.39 -23.52)"/><path d="m229.27 141.92c.19.76.55 1.46.8 2.2a4.58 4.58 0 0 0 .41 1 2.45 2.45 0 0 0 1.28.93 4.62 4.62 0 0 0 3.41-.11 6.05 6.05 0 0 0 3.08-3.54c.55-1.51 1.51-3 1.55-4.63 0-.69-.83-1.52-1.07-2.17a5.09 5.09 0 0 0 -1.32-1.8 6.29 6.29 0 0 0 -1.58-1.23 4.83 4.83 0 0 0 -4.59.55 4 4 0 0 0 -1.2 1c-.78 1.07-.66 2.38-.67 3.63-.01 1.44-.45 2.75-.1 4.17z" fill="url(#k)" transform="translate(-26.39 -23.52)"/><path d="m227.43 134.58a7.6 7.6 0 0 1 -.71-2.51.94.94 0 0 1 0-.62c.14-.29.51-.38.73-.61.47-.5.1-1.3.13-2a2.19 2.19 0 0 1 1.38-1.77 6.41 6.41 0 0 1 2.33-.39 3.83 3.83 0 0 1 3 .71c.4.4.61 1 1 1.33.91.75 2.29.26 3.44.53a2.62 2.62 0 0 1 2 2.09c.16 1-.23 2.13.34 3a3.57 3.57 0 0 1 .57.77 1.44 1.44 0 0 1 -.09 1 16.49 16.49 0 0 1 -1.79 3.71 1.55 1.55 0 0 1 -.54.57c-.24.12-.65 1.53-.79 1.31a4.68 4.68 0 0 1 .22-2.43 3 3 0 0 0 .63-.84 1 1 0 0 0 -.86-1.13 1 1 0 0 0 -.82.27c.26-1.6-.6-3.49-2.19-3.82a4.5 4.5 0 0 0 -2.76.57c-1.84.83-3.81 2.79-5.22.26z" fill="#dd8049" transform="translate(-26.39 -23.52)"/><path d="m238.2 137.85a.26.26 0 0 1 .15-.16.41.41 0 0 1 .24.08.54.54 0 0 1 .28.31.55.55 0 0 1 0 .31 2.22 2.22 0 0 1 -.24.6.71.71 0 0 1 -.52.35c-.1 0-.25-.23-.25-.32s.1-.14.14-.23c.12-.28 0-.63.2-.94z" fill="url(#l)" transform="translate(-26.39 -23.52)"/><path d="m237.22 99.02h49.51v32.23h-49.51z" fill="#fff"/><path d="m237.22 134.97h49.51v32.23h-49.51z" fill="#fff"/><path d="m183.17 134.97h49.51v32.23h-49.51z" fill="#fff"/><g transform="translate(-26.39 -23.52)"><path d="m283.23 161.72a11.88 11.88 0 0 1 5.68-.3 8.1 8.1 0 0 1 3.08.89c1.74 1 2.61 3.09 3 5.07a36.4 36.4 0 0 0 1.22 5.94c.85 2.18 2.53 4 3.1 6.28a6.86 6.86 0 0 1 -5 8.3 7 7 0 0 1 -1.7.2c-1.46 0-2.88-.48-4.34-.48-3 0-5.89 2.06-8.84 1.46-2.42-.5-4.15-2.69-5.14-5a6.45 6.45 0 0 1 -.55-4.46c.66-2 2.77-3.16 3.71-5 1.19-2.35.3-5.14 1.32-7.53.93-2.18 2.04-4.5 4.46-5.37z" fill="#606161"/><path d="m293.61 181c1.62.32 3.44.17 4.76 1.12a4.16 4.16 0 0 1 1.52 2.49 12.07 12.07 0 0 1 .14 2.94l-.11 2.9a.46.46 0 0 1 -.08.3.51.51 0 0 1 -.34.08l-25 .09a6 6 0 0 1 .65-4.72 11 11 0 0 1 2.52-3.26c1.52-1.15 5.06-1.25 6.73-2.2.44-.24 0-.59.53-.72s.28-.7.76-.71a17.92 17.92 0 0 1 4.39.19c1.23.36 2.2 1.23 3.53 1.5z" fill="#00bcd4"/><path d="m283.84 181.84a5.15 5.15 0 0 0 -.24 1.23 2.72 2.72 0 0 0 1.32 2.36 3 3 0 0 0 2.73.14 4.09 4.09 0 0 0 2-2.3 9 9 0 0 0 .51-3.09 25.37 25.37 0 0 0 -.25-4.18.85.85 0 0 0 -.7-1h-.21a3.76 3.76 0 0 0 -4 2.26 7.72 7.72 0 0 0 -.34 1.57 30.3 30.3 0 0 1 -.82 3.01z" fill="url(#m)"/><path d="m284.46 179.72s-.15 1.28.43 1.76 2.87 1.59 4 0a8.09 8.09 0 0 0 1.31-3.41z" fill="url(#n)"/><path d="m281.29 175.5c.29.94 2.06 4.25 4.49 4.85 5.25 1.3 6.84-7.93 6.58-9.87a8 8 0 0 0 -2.41-4.21 4.62 4.62 0 0 0 -4.77-.55c-4.12 1.76-5.18 5.77-3.89 9.78z" fill="url(#o)"/><path d="m279.59 170.35a1.08 1.08 0 0 0 .81.81 2.94 2.94 0 0 0 1.26-.35c.5-.15 1-.09 1.55-.28s.89-.8.6-1.22c-.15.64.7 1.06 1.35 1a4.24 4.24 0 0 1 1.94-.12l.25-1.28a1.18 1.18 0 0 0 .77 1.26 2.48 2.48 0 0 0 1.57 0c.23-.06.51-.24.42-.46.53.64 1.55.37 2.32 0a.57.57 0 0 0 .3-.23.55.55 0 0 0 0-.4 13.62 13.62 0 0 0 -1.33-3.59 4.68 4.68 0 0 0 -3-2.26 6.21 6.21 0 0 0 -2.19.12 8 8 0 0 0 -4.89 2.75c-.9 1.07-2.12 2.9-1.73 4.25z" fill="#606161"/><path d="m283.23 126.12a12 12 0 0 1 5.68-.29 8.1 8.1 0 0 1 3.08.89c3.06 1.81 2.34 4.4 2.62 7.23a2.68 2.68 0 0 0 1.43 2.24c.58.25 1.28.22 1.77.62a2 2 0 0 1 .47 2c-.17.69-.51 1.33-.65 2a1.09 1.09 0 0 0 .09.81c.21.31.64.36 1 .5a2.7 2.7 0 0 1 1.43 2.21c.12.91 0 1.83.07 2.75a10 10 0 0 1 .15 1.73c-.12 1.77-1.89 3.07-3.66 3.3a12.1 12.1 0 0 1 -5.21-.93 11.25 11.25 0 0 0 -5.22-.84c-1.9.31-3.91 1.55-5.59.62a3.33 3.33 0 0 1 -1.51-2.85 9.67 9.67 0 0 1 .69-3.28 1.47 1.47 0 0 0 .09-1.05 2.06 2.06 0 0 0 -.65-.63c-2.46-1.91-1.56-9.17-.52-11.64.91-2.19 2.02-4.51 4.44-5.39z" fill="#fbb03b"/><path d="m293.61 145.41c1.62.32 3.44.17 4.76 1.12a4.16 4.16 0 0 1 1.52 2.49 11.89 11.89 0 0 1 .11 3l-.11 2.9a.43.43 0 0 1 -.08.29.46.46 0 0 1 -.34.09l-25 .09a6 6 0 0 1 .65-4.72 11 11 0 0 1 2.52-3.26c1.52-1.15 5.06-1.25 6.73-2.2.44-.24 0-.59.53-.72s.28-.7.76-.71a17.92 17.92 0 0 1 4.39.19c1.26.3 2.23 1.17 3.56 1.44z" fill="#00bcd4"/><path d="m283.84 146.25a5.15 5.15 0 0 0 -.24 1.23 2.72 2.72 0 0 0 1.32 2.36 3 3 0 0 0 2.73.14 4.09 4.09 0 0 0 2-2.3 9 9 0 0 0 .51-3.09 25.37 25.37 0 0 0 -.25-4.18.85.85 0 0 0 -.7-1h-.21a3.76 3.76 0 0 0 -4 2.26 7.72 7.72 0 0 0 -.34 1.57 30.3 30.3 0 0 1 -.82 3.01z" fill="url(#p)"/><path d="m284.46 144.13s-.15 1.28.43 1.76 2.87 1.59 4 0a8.09 8.09 0 0 0 1.31-3.41z" fill="url(#q)"/><path d="m281.29 139.91c.29.94 2.06 4.25 4.49 4.85 5.25 1.3 6.84-7.93 6.58-9.87a8 8 0 0 0 -2.41-4.21 4.62 4.62 0 0 0 -4.77-.55c-4.12 1.76-5.18 5.77-3.89 9.78z" fill="url(#r)"/><path d="m224 178.82a17.47 17.47 0 0 1 6.63-1.13c2.47-.1 5.12-.13 7.17.94a10.4 10.4 0 0 1 2.56 2.06 3.53 3.53 0 0 1 .69.85 2.72 2.72 0 0 1 .2 1.26v5.86a2.19 2.19 0 0 1 -.2 1.13c-.54 1 1.35 1 0 1h-22.58c.36 0 .74-3.34.73-3.68 0-1.16-.36-2.15.2-3.24a10.23 10.23 0 0 1 4.6-5.05z" fill="#00bcd4"/><path d="m229.59 180.9a3.38 3.38 0 0 0 2.48.76 2.63 2.63 0 0 0 2-2.36c.15-1.05-.09-2.13 0-3.2a6.7 6.7 0 0 0 0-2 3 3 0 0 0 -2.49-1.91 3.55 3.55 0 0 0 -3 1.1c-1.05 1.17-.73 2.57-.78 4a4.46 4.46 0 0 0 1.79 3.61z" fill="#a67c52"/><path d="m228.08 176s1.18 3.42 3.45 3.42 2.59-1.15 2.59-1.15l-.1-1.84z" fill="url(#s)"/><path d="m236.24 171.88a11.28 11.28 0 0 1 -.5 3 4.68 4.68 0 0 1 -1.73 2.41 4.27 4.27 0 0 1 -4 .3 6.07 6.07 0 0 1 -3-2.89 10.8 10.8 0 0 1 -1.21-4 5.83 5.83 0 0 1 .57-3.13 4.32 4.32 0 0 1 2.6-2 10.11 10.11 0 0 1 3.33-.34 6.11 6.11 0 0 1 2.67.51 2.26 2.26 0 0 1 1.34 2.38c-.19 1.17 0 2.5-.07 3.76z" fill="#a67c52"/><path d="m227.27 171.38c-.29-.15-.45-.54-.77-.57a.5.5 0 0 0 -.47.3 1 1 0 0 0 0 .59 2.12 2.12 0 0 0 .67 1.21 1.18 1.18 0 0 1 .39.44 1 1 0 0 1 0 .43l-.13 1a1.82 1.82 0 0 1 -1.07-1.13c-.08-.21-.16-.62-.44-.68s-.47.3-.81 0a.61.61 0 0 1 -.15-.79c-.32.35-1 0-1.06-.43a1.19 1.19 0 0 1 .68-1.14 1.42 1.42 0 0 1 -1-1.1.86.86 0 0 1 .76-.95 1 1 0 0 1 .24 0 1.25 1.25 0 0 1 0-1.55 1.92 1.92 0 0 1 1.48-.68v-1.52a1.84 1.84 0 0 1 .22-1 .6.6 0 0 1 .83-.15h.05c.07-.71.25-1.55.91-1.8a2 2 0 0 1 1.5.29 1.51 1.51 0 0 1 1.13-1.33 2.18 2.18 0 0 1 1.78.38.48.48 0 0 0 .22.12.55.55 0 0 0 .31 0 2 2 0 0 1 2.8.43 2 2 0 0 1 .33 1.64c0-.33.5-.35.82-.27a1.83 1.83 0 0 1 1 .47c.45.5.23 1.29-.09 1.89a1.3 1.3 0 0 1 1.28 1.15c.11 1.13-1 1.15-1.6 1.76-.4.41-.58 1-1 1.37a1.92 1.92 0 0 1 -1.87.08 14.61 14.61 0 0 1 -1.66-1 1.29 1.29 0 0 0 -.91-.24c-.45.09-.71.58-1.11.81a1.77 1.77 0 0 1 -1.2.11c-.49-.1-1-.19-1.38.26a4.72 4.72 0 0 0 -.68 1.6z" fill="#606161"/><path d="m226.78 171.87a2.56 2.56 0 0 0 -.11-.24.25.25 0 0 0 -.22-.13.21.21 0 0 0 -.17.18.57.57 0 0 0 0 .26 2.25 2.25 0 0 0 .2.51.83.83 0 0 0 .21.28.85.85 0 0 0 .34.14.17.17 0 0 0 .14 0 .16.16 0 0 0 .05-.09c0-.15.1-.47 0-.6s-.14 0-.21-.08a.51.51 0 0 1 -.23-.23z" fill="url(#t)" opacity=".5"/><path d="m284.92 133.55a21.45 21.45 0 0 0 3.35.7c.07.66.16 1.32.28 2a2.16 2.16 0 0 0 .25.78 1.51 1.51 0 0 0 1 .64 4.43 4.43 0 0 0 1.26 0 .73.73 0 0 1 .54.09.75.75 0 0 1 .18.28l.74 1.74a.15.15 0 0 0 .22-.11.66.66 0 0 0 0-.28c-.12-.69.35-1.32.63-2 .71-1.63.24-3.52-.37-5.2a8.1 8.1 0 0 0 -1.09-2.18 6.83 6.83 0 0 0 -4.75-2.26 5.58 5.58 0 0 0 -2.66.23 3.64 3.64 0 0 0 -2.18 3.07c-.02 1.39 1.5 2.17 2.6 2.5z" fill="#fbb03b"/></g></svg>