<svg viewBox="0 0 140 140" height="140" width="140" xmlns="http://www.w3.org/2000/svg"><g transform="matrix(5.833333333333333,0,0,5.833333333333333,0,0)"><path d="M23.664,9.679,17.546,12.1a14.284,14.284,0,0,1-4.459.846H10.369a9.43,9.43,0,0,0-3.713.931L.126,17.4a.248.248,0,0,0-.132.219v2.812a.25.25,0,0,0,.388.208l5.611-3.716a8.144,8.144,0,0,1,4.425-1.147l2.73.2a16.933,16.933,0,0,0,4.064-.3l6.6-1.487a.25.25,0,0,0,.2-.244V9.911a.251.251,0,0,0-.342-.232Z" fill="#000" stroke="none" stroke-linecap="round" stroke-linejoin="round" stroke-width="0"></path><path d="M23.345.56a1,1,0,0,0-1.109.3L17.27,6.851a2.033,2.033,0,0,1-1.971.573L11.752,6.188a5.755,5.755,0,0,0-4.32.413L2.369,9.521a.25.25,0,0,1-.375-.216V1a1,1,0,0,0-2,0V15.343a.249.249,0,0,0,.369.219l5.582-3.007a10.867,10.867,0,0,1,4.424-1.111h2.718A12.922,12.922,0,0,0,17,10.7l6.853-2.708a.251.251,0,0,0,.158-.232V1.5A1,1,0,0,0,23.345.56Z" fill="#000" stroke="none" stroke-linecap="round" stroke-linejoin="round" stroke-width="0"></path><path d="M23.7,15.746l-6.159,1.388a18.344,18.344,0,0,1-4.5.334l-2.729-.2a6.689,6.689,0,0,0-3.488.9L.142,22.592a.253.253,0,0,0-.1.267A1.485,1.485,0,0,0,1.473,24H22.527a1.491,1.491,0,0,0,1.479-1.5V15.989a.251.251,0,0,0-.3-.243Z" fill="#000" stroke="none" stroke-linecap="round" stroke-linejoin="round" stroke-width="0"></path></g></svg>