<svg height="140" viewBox="0 0 140 140" width="140" xmlns="http://www.w3.org/2000/svg"><g transform="scale(5.83333333)"><path d="m23.664 9.679-6.118 2.421a14.284 14.284 0 0 1 -4.459.846h-2.718a9.43 9.43 0 0 0 -3.713.931l-6.53 3.523a.248.248 0 0 0 -.132.219v2.812a.25.25 0 0 0 .388.208l5.611-3.716a8.144 8.144 0 0 1 4.425-1.147l2.73.2a16.933 16.933 0 0 0 4.064-.3l6.6-1.487a.25.25 0 0 0 .2-.244v-4.034a.251.251 0 0 0 -.342-.232z"/><path d="m23.345.56a1 1 0 0 0 -1.109.3l-4.966 5.991a2.033 2.033 0 0 1 -1.971.573l-3.547-1.236a5.755 5.755 0 0 0 -4.32.413l-5.063 2.92a.25.25 0 0 1 -.375-.216v-8.305a1 1 0 0 0 -2 0v14.343a.249.249 0 0 0 .369.219l5.582-3.007a10.867 10.867 0 0 1 4.424-1.111h2.718a12.922 12.922 0 0 0 3.913-.744l6.853-2.708a.251.251 0 0 0 .158-.232v-6.26a1 1 0 0 0 -.666-.94z"/><path d="m23.7 15.746-6.159 1.388a18.344 18.344 0 0 1 -4.5.334l-2.729-.2a6.689 6.689 0 0 0 -3.488.9l-6.682 4.424a.253.253 0 0 0 -.1.267 1.485 1.485 0 0 0 1.431 1.141h21.054a1.491 1.491 0 0 0 1.479-1.5v-6.511a.251.251 0 0 0 -.3-.243z"/></g></svg>