<svg height="140" viewBox="0 0 140 140" width="140" xmlns="http://www.w3.org/2000/svg"><g fill="#111827" transform="scale(5.83333333)"><path d="m15.852 12.367-1-1.732a1 1 0 0 0 -1.366-.366l-.708.409a6.535 6.535 0 0 0 -2.353-1.354v-.824a1 1 0 0 0 -1-1h-2a1 1 0 0 0 -1 1v.821a6.455 6.455 0 0 0 -2.357 1.356l-.706-.408a1 1 0 0 0 -1.362.366l-1 1.732a1 1 0 0 0 .366 1.366l.712.412a6.46 6.46 0 0 0 0 2.713l-.712.411a1 1 0 0 0 -.366 1.366l1 1.732a1 1 0 0 0 1.366.366l.708-.409a6.508 6.508 0 0 0 2.355 1.355v.821a1 1 0 0 0 1 1h2a1 1 0 0 0 1-1v-.82a6.471 6.471 0 0 0 2.356-1.355l.705.408a1 1 0 0 0 1.366-.366l1-1.732a1 1 0 0 0 -.366-1.366l-.711-.41a6.453 6.453 0 0 0 0-2.715l.711-.411a1 1 0 0 0 .362-1.366zm-7.427 6.633a3.5 3.5 0 1 1 3.5-3.5 3.5 3.5 0 0 1 -3.5 3.5z"/><path d="m22.888 6.134-.568-.328a3.452 3.452 0 0 0 -.006-1.606l.574-.331a.5.5 0 0 0 .183-.683l-.5-.867a.5.5 0 0 0 -.683-.183l-.574.332a3.459 3.459 0 0 0 -1.389-.81v-.658a.5.5 0 0 0 -.5-.5h-1a.5.5 0 0 0 -.5.5v.656a3.5 3.5 0 0 0 -1.395.806l-.569-.329a.5.5 0 0 0 -.683.183l-.5.867a.5.5 0 0 0 .183.683l.567.327a3.461 3.461 0 0 0 0 1.61l-.572.33a.5.5 0 0 0 -.183.683l.5.867a.5.5 0 0 0 .683.183l.572-.331a3.462 3.462 0 0 0 1.392.812v.653a.5.5 0 0 0 .5.5h1a.5.5 0 0 0 .5-.5v-.655a3.489 3.489 0 0 0 1.394-.807l.569.329a.5.5 0 0 0 .683-.183l.5-.867a.5.5 0 0 0 -.178-.683zm-3.963.366a1.5 1.5 0 1 1 1.5-1.5 1.5 1.5 0 0 1 -1.5 1.5z"/></g></svg>