<svg height="140" viewBox="0 0 140 140" width="140" xmlns="http://www.w3.org/2000/svg"><path d="m7 0a7 7 0 0 0 -5.968 10.657l-1 2.668a.5.5 0 0 0 .468.675.463.463 0 0 0 .09-.008l3.493-.636a6.9 6.9 0 0 0 2.917.644 7 7 0 0 0 0-14zm-2.5 7.052a1 1 0 0 1 -1 .948h-.053a1 1 0 1 1 1.053-.948zm3.5 0a1 1 0 0 1 -1 .948h-.053a1 1 0 0 1 -.947-1.054 1 1 0 0 1 1.742-.615.99.99 0 0 1 .258.721zm3.5 0a1 1 0 0 1 -1 .948h-.054a1 1 0 0 1 -.946-1.054 1.009 1.009 0 0 1 1.053-.946 1 1 0 0 1 .947 1.052z" transform="scale(10)"/></svg>