<svg viewBox="0 0 140 140" height="140" width="140" xmlns="http://www.w3.org/2000/svg"><g transform="matrix(10,0,0,10,0,0)"><path d="M7,0A7,7,0,0,0,1.032,10.657l-1,2.668A.5.5,0,0,0,.5,14a.463.463,0,0,0,.09-.008l3.493-.636A6.9,6.9,0,0,0,7,14,7,7,0,0,0,7,0ZM4.5,7.052A1,1,0,0,1,3.5,8L3.447,8A1,1,0,1,1,4.5,7.052Zm3.5,0A1,1,0,0,1,7,8L6.947,8A1,1,0,0,1,6,6.946a1,1,0,0,1,1.742-.615A.99.99,0,0,1,8,7.052Zm3.5,0A1,1,0,0,1,10.5,8l-.054,0A1,1,0,0,1,9.5,6.946,1.009,1.009,0,0,1,10.553,6,1,1,0,0,1,11.5,7.052Z" fill="#000" stroke="none" stroke-linecap="round" stroke-linejoin="round" stroke-width="0"></path></g></svg>