<svg xmlns="http://www.w3.org/2000/svg" viewBox="0 0 24 24" height="48" width="48"><path d="M24,19.5A4.51,4.51,0,0,0,19.5,15a4.14,4.14,0,0,0-.87.1.25.25,0,0,1-.28-.14L14.93,8.13a.26.26,0,0,1,.06-.3A4.45,4.45,0,0,0,16.5,4.5a4.5,4.5,0,0,0-9,0A4.45,4.45,0,0,0,9,7.83a.26.26,0,0,1,.06.3L5.65,15a.25.25,0,0,1-.28.14A4.14,4.14,0,0,0,4.5,15a4.5,4.5,0,1,0,4.33,5.68.25.25,0,0,1,.24-.18h5.86a.25.25,0,0,1,.24.18A4.49,4.49,0,0,0,24,19.5Zm-8.83-1.18a.26.26,0,0,1-.24.18H9.07a.26.26,0,0,1-.24-.18,4.36,4.36,0,0,0-1.34-2.15.26.26,0,0,1-.06-.3L10.85,9a.26.26,0,0,1,.28-.13,3.83,3.83,0,0,0,1.74,0,.26.26,0,0,1,.28.13l3.42,6.84a.26.26,0,0,1-.06.3A4.36,4.36,0,0,0,15.17,18.32Z" fill="#000000"></path></svg>