<svg height="140" viewBox="0 0 140 140" width="140" xmlns="http://www.w3.org/2000/svg"><path d="m20.15 4.04a.5.5 0 0 1 -.4-.489v-1.551a2 2 0 0 0 -2-2h-12.5a3 3 0 0 0 -3 3v18a3 3 0 0 0 3 3h14.5a2 2 0 0 0 2-2v-16a2 2 0 0 0 -1.6-1.96zm-2.9 9.253a.25.25 0 0 1 -.426.177l-1.9-1.9a.252.252 0 0 0 -.354 0l-1.9 1.9a.25.25 0 0 1 -.426-.177v-7.543a.25.25 0 0 1 .25-.25h4.506a.25.25 0 0 1 .25.25zm.5-9.543a.25.25 0 0 1 -.25.25h-12.25a1 1 0 0 1 0-2h12.25a.25.25 0 0 1 .25.25z" transform="scale(5.83333333)"/></svg>