<svg height="140" viewBox="0 0 140 140" width="140" xmlns="http://www.w3.org/2000/svg"><path d="m8.846 5.644v-1.288l.575-.721a.766.766 0 0 0 .065-.864l-.312-.542a.769.769 0 0 0 -.781-.376l-.912.138-1.116-.644-.336-.858a.77.77 0 0 0 -.716-.489h-.626a.77.77 0 0 0 -.716.489l-.336.858-1.116.644-.912-.138a.769.769 0 0 0 -.781.376l-.312.542a.766.766 0 0 0 .065.864l.575.721v1.288l-.575.721a.766.766 0 0 0 -.065.864l.312.542a.769.769 0 0 0 .781.376l.912-.138 1.116.644.336.858a.77.77 0 0 0 .716.489h.626a.77.77 0 0 0 .716-.489l.336-.858 1.116-.644.912.138a.769.769 0 0 0 .781-.376l.312-.542a.766.766 0 0 0 -.065-.864zm-3.846.856a1.5 1.5 0 1 1 1.5-1.5 1.5 1.5 0 0 1 -1.5 1.5z" transform="scale(14)"/></svg>