<svg xmlns="http://www.w3.org/2000/svg" viewBox="0 0 140 140" height="140" width="140">
  
<g transform="matrix(5.833333333333333,0,0,5.833333333333333,0,0)"><g>
    <path d="M13,21H8.51a.25.25,0,0,0-.24.22,2.64,2.64,0,0,0,0,.28,2.5,2.5,0,0,0,5,0,2.64,2.64,0,0,0,0-.28A.25.25,0,0,0,13,21Z" style="fill: #111827"></path>
    <path d="M13.75,5a4.35,4.35,0,0,1,.35-1.73,6.33,6.33,0,0,0-1.85-.63V1.5a1.5,1.5,0,0,0-3,0V2.65A6.7,6.7,0,0,0,6.4,3.93a9.19,9.19,0,0,0-3.35,7.25v.76A16.29,16.29,0,0,1,1.3,19.28a.51.51,0,0,0,.23.67.54.54,0,0,0,.22.05h18a.5.5,0,0,0,.5-.5.51.51,0,0,0-.05-.22h0a16.29,16.29,0,0,1-1.75-7.34v-.76a9.56,9.56,0,0,0-.14-1.69h-.06A4.49,4.49,0,0,1,13.75,5Z" style="fill: #111827"></path>
    <circle cx="18.25" cy="5" r="3" style="fill: #111827"></circle>
  </g></g></svg>