<svg height="140" viewBox="0 0 140 140" width="140" xmlns="http://www.w3.org/2000/svg"><g fill="#111827" transform="scale(5.83333333)"><path d="m13 21h-4.49a.25.25 0 0 0 -.24.22 2.64 2.64 0 0 0 0 .28 2.5 2.5 0 0 0 5 0 2.64 2.64 0 0 0 0-.28.25.25 0 0 0 -.27-.22z"/><path d="m13.75 5a4.35 4.35 0 0 1 .35-1.73 6.33 6.33 0 0 0 -1.85-.63v-1.14a1.5 1.5 0 0 0 -3 0v1.15a6.7 6.7 0 0 0 -2.85 1.28 9.19 9.19 0 0 0 -3.35 7.25v.76a16.29 16.29 0 0 1 -1.75 7.34.51.51 0 0 0 .23.67.54.54 0 0 0 .22.05h18a.5.5 0 0 0 .5-.5.51.51 0 0 0 -.05-.22 16.29 16.29 0 0 1 -1.75-7.34v-.76a9.56 9.56 0 0 0 -.14-1.69h-.06a4.49 4.49 0 0 1 -4.5-4.49z"/><circle cx="18.25" cy="5" r="3"/></g></svg>