<svg height="140" viewBox="0 0 140 140" width="140" xmlns="http://www.w3.org/2000/svg"><g fill="#111827" transform="scale(5.83333333)"><path d="m13.5 14.5h-3a.75.75 0 0 0 0 1.5h3a.75.75 0 0 0 0-1.5z"/><path d="m20 5.75a1 1 0 0 0 0 2h1a1 1 0 0 0 0-2z"/><path d="m19 3.75a1 1 0 0 0 .707-.293l1-1a1 1 0 1 0 -1.414-1.415l-1 1a1 1 0 0 0 .707 1.708z"/><path d="m3 7.75h1a1 1 0 0 0 0-2h-1a1 1 0 0 0 0 2z"/><path d="m4.293 3.457a1 1 0 0 0 1.414-1.415l-1-1a1 1 0 0 0 -1.414 1.415z"/><path d="m19.293 12.457a1 1 0 1 0 1.414-1.415l-1-1a1 1 0 0 0 -1.414 1.415z"/><path d="m4.293 10.042-1 1a1 1 0 1 0 1.414 1.415l1-1a1 1 0 0 0 -1.414-1.415z"/><path d="m17.5 6.75a5.5 5.5 0 1 0 -8.13 4.81.252.252 0 0 1 .13.22v.47a1 1 0 0 0 1 1h3a1 1 0 0 0 1-1v-.47a.252.252 0 0 1 .13-.22 5.5 5.5 0 0 0 2.87-4.81z"/><path d="m8 17.2a.5.5 0 0 0 -.684-.419l-4.4 1.752a4.521 4.521 0 0 0 -2.916 4.217.5.5 0 0 0 .5.5h7.5a.5.5 0 0 0 .5-.546z"/><path d="m21.087 18.539-4.4-1.754a.5.5 0 0 0 -.687.415l-.5 5.5a.5.5 0 0 0 .5.546h7.5a.5.5 0 0 0 .5-.5 4.531 4.531 0 0 0 -2.913-4.207z"/><path d="m12.464 18.814a.52.52 0 0 0 -.928 0l-1.5 3.75a.5.5 0 0 0 .464.686h3a.5.5 0 0 0 .464-.686z"/></g></svg>