<svg viewBox="0 0 140 140" height="140" width="140" xmlns="http://www.w3.org/2000/svg"><g transform="matrix(5.833333333333333,0,0,5.833333333333333,0,0)"><path d="M13.5,14.5h-3a.75.75,0,0,0,0,1.5h3a.75.75,0,0,0,0-1.5Z" fill="#111827" stroke="none" stroke-linecap="round" stroke-linejoin="round" stroke-width="0"></path><path d="M20,5.75a1,1,0,0,0,0,2h1a1,1,0,0,0,0-2Z" fill="#111827" stroke="none" stroke-linecap="round" stroke-linejoin="round" stroke-width="0"></path><path d="M19,3.75a1,1,0,0,0,.707-.293l1-1a1,1,0,1,0-1.414-1.415l-1,1A1,1,0,0,0,19,3.75Z" fill="#111827" stroke="none" stroke-linecap="round" stroke-linejoin="round" stroke-width="0"></path><path d="M3,7.75H4a1,1,0,0,0,0-2H3a1,1,0,0,0,0,2Z" fill="#111827" stroke="none" stroke-linecap="round" stroke-linejoin="round" stroke-width="0"></path><path d="M4.293,3.457A1,1,0,0,0,5.707,2.042l-1-1A1,1,0,0,0,3.293,2.457Z" fill="#111827" stroke="none" stroke-linecap="round" stroke-linejoin="round" stroke-width="0"></path><path d="M19.293,12.457a1,1,0,1,0,1.414-1.415l-1-1a1,1,0,0,0-1.414,1.415Z" fill="#111827" stroke="none" stroke-linecap="round" stroke-linejoin="round" stroke-width="0"></path><path d="M4.293,10.042l-1,1a1,1,0,1,0,1.414,1.415l1-1a1,1,0,0,0-1.414-1.415Z" fill="#111827" stroke="none" stroke-linecap="round" stroke-linejoin="round" stroke-width="0"></path><path d="M17.5,6.75a5.5,5.5,0,1,0-8.13,4.81.252.252,0,0,1,.13.22v.47a1,1,0,0,0,1,1h3a1,1,0,0,0,1-1v-.47a.252.252,0,0,1,.13-.22A5.5,5.5,0,0,0,17.5,6.75Z" fill="#111827" stroke="none" stroke-linecap="round" stroke-linejoin="round" stroke-width="0"></path><path d="M8,17.2a.5.5,0,0,0-.684-.419l-4.4,1.752A4.521,4.521,0,0,0,0,22.75a.5.5,0,0,0,.5.5H8a.5.5,0,0,0,.5-.546Z" fill="#111827" stroke="none" stroke-linecap="round" stroke-linejoin="round" stroke-width="0"></path><path d="M21.087,18.539l-4.4-1.754A.5.5,0,0,0,16,17.2l-.5,5.5a.5.5,0,0,0,.5.546h7.5a.5.5,0,0,0,.5-.5A4.531,4.531,0,0,0,21.087,18.539Z" fill="#111827" stroke="none" stroke-linecap="round" stroke-linejoin="round" stroke-width="0"></path><path d="M12.464,18.814a.52.52,0,0,0-.928,0l-1.5,3.75a.5.5,0,0,0,.464.686h3a.5.5,0,0,0,.464-.686Z" fill="#111827" stroke="none" stroke-linecap="round" stroke-linejoin="round" stroke-width="0"></path></g></svg>