<svg height="140" viewBox="0 0 140 140" width="140" xmlns="http://www.w3.org/2000/svg"><g transform="scale(10)"><path d="m7.875 5.5v-.965a.876.876 0 1 0 -1.75 0v.965z" fill="#111827"/><path d="m12.5 0h-11a1.5 1.5 0 0 0 -1.5 1.5v2.92a10.194 10.194 0 0 0 6.461 9.48 1.5 1.5 0 0 0 1.078 0 10.194 10.194 0 0 0 6.461-9.48v-2.92a1.5 1.5 0 0 0 -1.5-1.5zm-2.5 8.5a1.5 1.5 0 0 1 -1.5 1.5h-3a1.5 1.5 0 0 1 -1.5-1.5v-1.5a1.5 1.5 0 0 1 .875-1.363v-1.1a2.125 2.125 0 1 1 4.25 0v1.1a1.5 1.5 0 0 1 .875 1.363z"/></g></svg>