<svg height="140" viewBox="0 0 140 140" width="140" xmlns="http://www.w3.org/2000/svg"><g transform="scale(5.83333333)"><path d="m8.489 9.1a.75.75 0 0 0 1.022 1.1.559.559 0 0 1 .557 0 .75.75 0 0 0 1.022-1.1 2.02 2.02 0 0 0 -2.601 0z"/><path d="m13.932 10.2a.559.559 0 0 1 .557 0 .75.75 0 0 0 1.022-1.1 2.02 2.02 0 0 0 -2.6 0 .75.75 0 0 0 1.022 1.1z"/><path d="m5.159 8.464a.252.252 0 0 1 -.049.185 2.156 2.156 0 0 0 -.4 1.365 2.731 2.731 0 0 0 1.439 2.433.25.25 0 0 1 .144.187c.511 3.048 4.021 4.991 5.686 4.991a4.764 4.764 0 0 0 1.873-.493.751.751 0 0 0 -.633-1.361 3.328 3.328 0 0 1 -1.24.354c-1.032 0-3.83-1.49-4.207-3.738a1.747 1.747 0 0 0 -1-1.306 1.275 1.275 0 0 1 -.559-1.1 1.226 1.226 0 0 1 .008-.17.218.218 0 0 1 .217-.19h.183a1.754 1.754 0 0 0 1.713-1.402l.185-.919a.25.25 0 0 1 .227-.2 5.1 5.1 0 0 0 3.07-1.051.251.251 0 0 1 .328 0 5.107 5.107 0 0 0 3.07 1.05.25.25 0 0 1 .227.2l.184.922a1.754 1.754 0 0 0 1.716 1.406.159.159 0 0 1 .159.159v1.435a.252.252 0 0 1 -.077.181.184.184 0 0 0 -.023.025 4.272 4.272 0 0 1 -3.4 1.7h-1.5a.75.75 0 0 0 0 1.5h1.5a5.777 5.777 0 0 0 4.484-2.156.25.25 0 0 1 .195-.094h.821a2 2 0 0 0 0-4h-.416a.249.249 0 0 1 -.249-.277c.275-2.529-.163-4.51-1.325-5.882-1.176-1.389-3.036-2.093-5.531-2.093s-4.353.703-5.529 2.091c-1.259 1.484-1.629 3.705-1.291 6.248z"/><path d="m16.951 16.979-.259-.074a.5.5 0 0 0 -.537.18 5.556 5.556 0 0 1 -2.129 1.553.247.247 0 0 0 .017.461l3.19 1.111a.25.25 0 0 0 .329-.274l-.433-2.755a.25.25 0 0 0 -.178-.202z"/><path d="m7.845 17.085a.5.5 0 0 0 -.537-.18l-.259.074a.25.25 0 0 0 -.178.2l-.432 2.747a.251.251 0 0 0 .331.275l3.156-1.12a.247.247 0 0 0 .02-.459 5.515 5.515 0 0 1 -2.101-1.537z"/><path d="m5.917 21.566a.506.506 0 0 1 -.167.029.5.5 0 0 1 -.494-.577l.518-3.3a.247.247 0 0 0 -.081-.226.252.252 0 0 0 -.234-.053l-2.538.727a4.52 4.52 0 0 0 -2.921 4.209v1a.5.5 0 0 0 .5.5h10.5a.25.25 0 0 0 .25-.25v-3.595a.249.249 0 0 0 -.106-.205.253.253 0 0 0 -.228-.031z"/><path d="m21.042 18.149-2.5-.715a.25.25 0 0 0 -.316.279l.519 3.305a.5.5 0 0 1 -.494.577.474.474 0 0 1 -.165-.029l-5-1.743a.249.249 0 0 0 -.332.236v3.566a.25.25 0 0 0 .25.25h10.496a.5.5 0 0 0 .5-.5v-1a4.531 4.531 0 0 0 -2.958-4.226z"/></g></svg>