<svg viewBox="0 0 140 140" height="140" width="140" xmlns="http://www.w3.org/2000/svg"><g transform="matrix(5.833333333333333,0,0,5.833333333333333,0,0)"><path d="M8.489,9.1a.75.75,0,0,0,1.022,1.1.559.559,0,0,1,.557,0A.75.75,0,0,0,11.09,9.1,2.02,2.02,0,0,0,8.489,9.1Z" fill="#000" stroke="none" stroke-linecap="round" stroke-linejoin="round" stroke-width="0"></path><path d="M13.932,10.2a.559.559,0,0,1,.557,0,.75.75,0,0,0,1.022-1.1,2.02,2.02,0,0,0-2.6,0,.75.75,0,0,0,1.022,1.1Z" fill="#000" stroke="none" stroke-linecap="round" stroke-linejoin="round" stroke-width="0"></path><path d="M5.159,8.464a.252.252,0,0,1-.049.185,2.156,2.156,0,0,0-.4,1.365,2.731,2.731,0,0,0,1.439,2.433.25.25,0,0,1,.144.187c.511,3.048,4.021,4.991,5.686,4.991a4.764,4.764,0,0,0,1.873-.493.751.751,0,0,0-.633-1.361,3.328,3.328,0,0,1-1.24.354c-1.032,0-3.83-1.49-4.207-3.738a1.747,1.747,0,0,0-1-1.306,1.275,1.275,0,0,1-.559-1.1,1.226,1.226,0,0,1,.008-.17.218.218,0,0,1,.217-.19h.183A1.754,1.754,0,0,0,8.334,8.219L8.519,7.3a.25.25,0,0,1,.227-.2,5.1,5.1,0,0,0,3.07-1.051.251.251,0,0,1,.328,0,5.107,5.107,0,0,0,3.07,1.05.25.25,0,0,1,.227.2l.184.922a1.754,1.754,0,0,0,1.716,1.406.159.159,0,0,1,.159.159v1.435a.252.252,0,0,1-.077.181.184.184,0,0,0-.023.025,4.272,4.272,0,0,1-3.4,1.7H12.5a.75.75,0,0,0,0,1.5H14a5.777,5.777,0,0,0,4.484-2.156.25.25,0,0,1,.195-.094H19.5a2,2,0,0,0,0-4h-.416a.249.249,0,0,1-.249-.277c.275-2.529-.163-4.51-1.325-5.882C16.334.829,14.474.125,11.979.125S7.626.828,6.45,2.216C5.191,3.7,4.821,5.921,5.159,8.464Z" fill="#000" stroke="none" stroke-linecap="round" stroke-linejoin="round" stroke-width="0"></path><path d="M16.951,16.979l-.259-.074a.5.5,0,0,0-.537.18,5.556,5.556,0,0,1-2.129,1.553.247.247,0,0,0,.017.461l3.19,1.111a.25.25,0,0,0,.329-.274l-.433-2.755A.25.25,0,0,0,16.951,16.979Z" fill="#000" stroke="none" stroke-linecap="round" stroke-linejoin="round" stroke-width="0"></path><path d="M7.845,17.085a.5.5,0,0,0-.537-.18l-.259.074a.25.25,0,0,0-.178.2l-.432,2.747a.251.251,0,0,0,.331.275l3.156-1.12a.247.247,0,0,0,.02-.459A5.515,5.515,0,0,1,7.845,17.085Z" fill="#000" stroke="none" stroke-linecap="round" stroke-linejoin="round" stroke-width="0"></path><path d="M5.917,21.566a.506.506,0,0,1-.167.029.5.5,0,0,1-.494-.577l.518-3.3a.247.247,0,0,0-.081-.226.252.252,0,0,0-.234-.053l-2.538.727A4.52,4.52,0,0,0,0,22.375v1a.5.5,0,0,0,.5.5H11a.25.25,0,0,0,.25-.25V20.03a.249.249,0,0,0-.106-.205.253.253,0,0,0-.228-.031Z" fill="#000" stroke="none" stroke-linecap="round" stroke-linejoin="round" stroke-width="0"></path><path d="M21.042,18.149l-2.5-.715a.25.25,0,0,0-.316.279l.519,3.305a.5.5,0,0,1-.494.577.474.474,0,0,1-.165-.029l-5-1.743a.249.249,0,0,0-.332.236v3.566a.25.25,0,0,0,.25.25H23.5a.5.5,0,0,0,.5-.5v-1A4.531,4.531,0,0,0,21.042,18.149Z" fill="#000" stroke="none" stroke-linecap="round" stroke-linejoin="round" stroke-width="0"></path></g></svg>