<svg height="140" viewBox="0 0 140 140" width="140" xmlns="http://www.w3.org/2000/svg"><g transform="scale(5.83333333)"><circle cx="18.11" cy="12.38" r="2.38"/><circle cx="5.89" cy="12.38" r="2.38"/><circle cx="11.95" cy="8.89" r="2.89"/><path d="m12 0a12 12 0 1 0 12 12 12 12 0 0 0 -12-12zm5 16a5.34 5.34 0 0 1 .4 2 .5.5 0 0 1 -1 0 4.39 4.39 0 0 0 -8.78 0 .5.5 0 0 1 -1 0 5.34 5.34 0 0 1 .38-2 4.94 4.94 0 0 0 -3.86.7 10 10 0 1 1 18.86-4.7 9.9 9.9 0 0 1 -1.16 4.66 4.91 4.91 0 0 0 -3.84-.66z"/></g></svg>