<svg viewBox="0 0 140 140" height="140" width="140" xmlns="http://www.w3.org/2000/svg"><g transform="matrix(10,0,0,10,0,0)"><path d="M12.5,0H1.5A1.5,1.5,0,0,0,0,1.5v11A1.5,1.5,0,0,0,1.5,14h11A1.5,1.5,0,0,0,14,12.5V1.5A1.5,1.5,0,0,0,12.5,0ZM7,12a5,5,0,1,1,5-5A5,5,0,0,1,7,12Z" fill="#000" stroke="none" stroke-linecap="round" stroke-linejoin="round" stroke-width="0"></path><path d="M9,7.75H7A.75.75,0,0,1,6.25,7V4.5a.75.75,0,0,1,1.5,0V6.25H9a.75.75,0,0,1,0,1.5Z" fill="#111827" stroke="none" stroke-linecap="round" stroke-linejoin="round" stroke-width="0"></path></g></svg>