<svg height="789.6875" viewBox="0 0 1250 789.68751" width="1250" xmlns="http://www.w3.org/2000/svg" xmlns:xlink="http://www.w3.org/1999/xlink"><linearGradient id="a"><stop offset="0" stop-color="#1a969c"/><stop offset=".507696" stop-color="#1abc9c"/><stop offset=".998608" stop-color="#1a969c"/><stop offset="1" stop-color="#1a969c"/></linearGradient><linearGradient id="b" gradientTransform="matrix(1491.9365 693.70294 693.70294 -1491.9365 -61.164814 182.52434)" gradientUnits="userSpaceOnUse" spreadMethod="pad" x1="0" x2="1" xlink:href="#a" y1="0" y2="0"/><clipPath id="c"><path d="m244.241 401.217-.127-.221-82.542-169.938-84.749 169.782-.204.382c-4.677 8.176-11.884 12.498-20.844 12.498-6.516 0-12.337-2.377-16.832-6.871-4.496-4.495-6.873-10.317-6.873-16.837v-209.002c0-6.52 2.377-12.342 6.871-16.833 4.496-4.497 10.317-6.873 16.834-6.873 6.518 0 12.34 2.376 16.834 6.872 4.497 4.495 6.873 10.316 6.873 16.834v118.174l59.265-118.774c4.337-8.928 12.036-13.845 21.685-13.845 8.36 0 15.379 3.972 20.296 11.488l.258.395 60.394 123.037v-120.475c0-6.517 2.377-12.338 6.874-16.837 4.497-4.493 10.318-6.869 16.834-6.869 6.259 0 11.995 2.344 16.591 6.786 4.655 4.507 7.116 10.357 7.116 16.92v209.002c0 6.517-2.376 12.338-6.872 16.835l-.002.002c-4.499 4.495-10.319 6.871-16.833 6.871-8.969 0-16.178-4.324-20.847-12.503"/></clipPath><linearGradient id="d" gradientTransform="matrix(1491.9365 693.70294 693.70294 -1491.9365 -35.553829 127.44318)" gradientUnits="userSpaceOnUse" spreadMethod="pad" x1="0" x2="1" xlink:href="#a" y1="0" y2="0"/><linearGradient id="e" gradientTransform="matrix(1491.9365 693.70294 693.70294 -1491.9365 -47.746242 153.66522)" gradientUnits="userSpaceOnUse" spreadMethod="pad" x1="0" x2="1" xlink:href="#a" y1="0" y2="0"/><linearGradient id="f" gradientTransform="matrix(1491.9365 693.70294 693.70294 -1491.9365 -59.93866 179.88727)" gradientUnits="userSpaceOnUse" spreadMethod="pad" x1="0" x2="1" xlink:href="#a" y1="0" y2="0"/><linearGradient id="g" gradientTransform="matrix(1491.9365 693.70294 693.70294 -1491.9365 -72.131073 206.1093)" gradientUnits="userSpaceOnUse" spreadMethod="pad" x1="0" x2="1" xlink:href="#a" y1="0" y2="0"/><linearGradient id="h" gradientTransform="matrix(1491.9365 693.70294 693.70294 -1491.9365 -75.181374 212.66954)" gradientUnits="userSpaceOnUse" spreadMethod="pad" x1="0" x2="1" xlink:href="#a" y1="0" y2="0"/><linearGradient id="i" gradientTransform="matrix(1491.9365 693.70294 693.70294 -1491.9365 -72.701858 207.3369)" gradientUnits="userSpaceOnUse" spreadMethod="pad" x1="0" x2="1" xlink:href="#a" y1="0" y2="0"/><linearGradient id="j" gradientTransform="matrix(1491.9365 693.70294 693.70294 -1491.9365 -68.711174 198.75418)" gradientUnits="userSpaceOnUse" spreadMethod="pad" x1="0" x2="1" xlink:href="#a" y1="0" y2="0"/><linearGradient id="k" gradientTransform="matrix(1491.9365 693.70294 693.70294 -1491.9365 -64.720482 190.17145)" gradientUnits="userSpaceOnUse" spreadMethod="pad" x1="0" x2="1" xlink:href="#a" y1="0" y2="0"/><linearGradient id="l" gradientTransform="matrix(1491.9365 693.70294 693.70294 -1491.9365 -60.72979 181.58873)" gradientUnits="userSpaceOnUse" spreadMethod="pad" x1="0" x2="1" xlink:href="#a" y1="0" y2="0"/><linearGradient id="m" gradientTransform="matrix(1491.9365 693.70294 693.70294 -1491.9365 -56.739098 173.00601)" gradientUnits="userSpaceOnUse" spreadMethod="pad" x1="0" x2="1" xlink:href="#a" y1="0" y2="0"/><linearGradient id="n" gradientTransform="matrix(1491.9365 693.70294 693.70294 -1491.9365 -52.748406 164.42329)" gradientUnits="userSpaceOnUse" spreadMethod="pad" x1="0" x2="1" xlink:href="#a" y1="0" y2="0"/><linearGradient id="o" gradientTransform="matrix(1491.9365 693.70294 693.70294 -1491.9365 -48.983978 156.32719)" gradientUnits="userSpaceOnUse" spreadMethod="pad" x1="0" x2="1" xlink:href="#a" y1="0" y2="0"/><linearGradient id="p" gradientTransform="matrix(1491.9365 693.70294 693.70294 -1491.9365 -46.709648 151.43584)" gradientUnits="userSpaceOnUse" spreadMethod="pad" x1="0" x2="1" xlink:href="#a" y1="0" y2="0"/><linearGradient id="q" gradientTransform="matrix(1491.9365 693.70294 693.70294 -1491.9365 -52.706696 164.33359)" gradientUnits="userSpaceOnUse" spreadMethod="pad" x1="0" x2="1" xlink:href="#a" y1="0" y2="0"/><linearGradient id="r" gradientTransform="matrix(1491.9365 693.70294 693.70294 -1491.9365 -64.899109 190.55563)" gradientUnits="userSpaceOnUse" spreadMethod="pad" x1="0" x2="1" xlink:href="#a" y1="0" y2="0"/><linearGradient id="s" gradientTransform="matrix(1491.9365 693.70294 693.70294 -1491.9365 -77.091522 216.77768)" gradientUnits="userSpaceOnUse" spreadMethod="pad" x1="0" x2="1" xlink:href="#a" y1="0" y2="0"/><linearGradient id="t" gradientTransform="matrix(1491.9365 693.70294 693.70294 -1491.9365 62.533962 -83.512756)" gradientUnits="userSpaceOnUse" spreadMethod="pad" x1="0" x2="1" xlink:href="#a" y1="0" y2="0"/><clipPath id="u"><path d="m819.341 413.72c-6.404 0-12.14-2.272-16.587-6.567-4.516-4.366-6.904-10.219-6.904-16.926v-206.204c0-6.46 2.357-12.23 6.81-16.681 4.456-4.456 10.224-6.812 16.681-6.812h55.131c24.184 0 46.055 5.461 65.004 16.23 19.032 10.815 34.054 26.057 44.651 45.301 10.532 19.136 15.873 41.078 15.873 65.216 0 24.144-5.343 46.04-15.882 65.08v.002c-10.595 19.131-25.615 34.316-44.643 45.131-18.959 10.769-40.828 16.23-65.003 16.23zm23.492-43.329h31.639c15.404 0 29.33-3.547 41.389-10.54 11.99-6.96 21.467-16.815 28.166-29.286 6.773-12.626 10.207-27.19 10.207-43.288 0-16.111-3.437-30.733-10.217-43.458-6.7-12.572-16.175-22.469-28.155-29.418-12.053-6.996-25.979-10.543-41.39-10.543h-31.639z"/></clipPath><linearGradient id="v" gradientTransform="matrix(1491.9365 693.70294 693.70294 -1491.9365 81.484894 -124.27025)" gradientUnits="userSpaceOnUse" spreadMethod="pad" x1="0" x2="1" xlink:href="#a" y1="0" y2="0"/><linearGradient id="w" gradientTransform="matrix(1491.9365 693.70294 693.70294 -1491.9365 69.695579 -98.915146)" gradientUnits="userSpaceOnUse" spreadMethod="pad" x1="0" x2="1" xlink:href="#a" y1="0" y2="0"/><linearGradient id="x" gradientTransform="matrix(1491.9365 693.70294 693.70294 -1491.9365 64.57679 -87.906242)" gradientUnits="userSpaceOnUse" spreadMethod="pad" x1="0" x2="1" xlink:href="#a" y1="0" y2="0"/><linearGradient id="y" gradientTransform="matrix(1491.9365 693.70294 693.70294 -1491.9365 66.195099 -91.386703)" gradientUnits="userSpaceOnUse" spreadMethod="pad" x1="0" x2="1" xlink:href="#a" y1="0" y2="0"/><linearGradient id="z" gradientTransform="matrix(1491.9365 693.70294 693.70294 -1491.9365 68.742241 -96.864807)" gradientUnits="userSpaceOnUse" spreadMethod="pad" x1="0" x2="1" xlink:href="#a" y1="0" y2="0"/><linearGradient id="A" gradientTransform="matrix(1491.9365 693.70294 693.70294 -1491.9365 71.001312 -101.72335)" gradientUnits="userSpaceOnUse" spreadMethod="pad" x1="0" x2="1" xlink:href="#a" y1="0" y2="0"/><linearGradient id="B" gradientTransform="matrix(1491.9365 693.70294 693.70294 -1491.9365 66.533409 -92.114319)" gradientUnits="userSpaceOnUse" spreadMethod="pad" x1="0" x2="1" xlink:href="#a" y1="0" y2="0"/><linearGradient id="C" gradientTransform="matrix(1491.9365 693.70294 693.70294 -1491.9365 54.744099 -66.759216)" gradientUnits="userSpaceOnUse" spreadMethod="pad" x1="0" x2="1" xlink:href="#a" y1="0" y2="0"/><linearGradient id="D" gradientTransform="matrix(1491.9365 693.70294 693.70294 -1491.9365 92.431892 -147.8138)" gradientUnits="userSpaceOnUse" spreadMethod="pad" x1="0" x2="1" xlink:href="#a" y1="0" y2="0"/><linearGradient id="E" gradientTransform="matrix(1491.9365 693.70294 693.70294 -1491.9365 80.642586 -122.45869)" gradientUnits="userSpaceOnUse" spreadMethod="pad" x1="0" x2="1" xlink:href="#a" y1="0" y2="0"/><linearGradient id="F" gradientTransform="matrix(1491.9365 693.70294 693.70294 -1491.9365 68.853271 -97.103592)" gradientUnits="userSpaceOnUse" spreadMethod="pad" x1="0" x2="1" xlink:href="#a" y1="0" y2="0"/><linearGradient id="G" gradientTransform="matrix(1491.9365 693.70294 693.70294 -1491.9365 58.847454 -75.584236)" gradientUnits="userSpaceOnUse" spreadMethod="pad" x1="0" x2="1" xlink:href="#a" y1="0" y2="0"/><linearGradient id="H" gradientTransform="matrix(1491.9365 693.70294 693.70294 -1491.9365 60.857143 -79.906448)" gradientUnits="userSpaceOnUse" spreadMethod="pad" x1="0" x2="1" xlink:href="#a" y1="0" y2="0"/><linearGradient id="I" gradientTransform="matrix(1491.9365 693.70294 693.70294 -1491.9365 63.484047 -85.556091)" gradientUnits="userSpaceOnUse" spreadMethod="pad" x1="0" x2="1" xlink:href="#a" y1="0" y2="0"/><linearGradient id="J" gradientTransform="matrix(1491.9365 693.70294 693.70294 -1491.9365 66.031189 -91.034195)" gradientUnits="userSpaceOnUse" spreadMethod="pad" x1="0" x2="1" xlink:href="#a" y1="0" y2="0"/><linearGradient id="K" gradientTransform="matrix(1491.9365 693.70294 693.70294 -1491.9365 68.578339 -96.512299)" gradientUnits="userSpaceOnUse" spreadMethod="pad" x1="0" x2="1" xlink:href="#a" y1="0" y2="0"/><linearGradient id="L" gradientTransform="matrix(1491.9365 693.70294 693.70294 -1491.9365 71.125481 -101.99041)" gradientUnits="userSpaceOnUse" spreadMethod="pad" x1="0" x2="1" xlink:href="#a" y1="0" y2="0"/><linearGradient id="M" gradientTransform="matrix(1491.9365 693.70294 693.70294 -1491.9365 73.672623 -107.46851)" gradientUnits="userSpaceOnUse" spreadMethod="pad" x1="0" x2="1" xlink:href="#a" y1="0" y2="0"/><linearGradient id="N" gradientTransform="matrix(1491.9365 693.70294 693.70294 -1491.9365 75.717728 -111.86688)" gradientUnits="userSpaceOnUse" spreadMethod="pad" x1="0" x2="1" xlink:href="#a" y1="0" y2="0"/><linearGradient id="O" gradientTransform="matrix(1491.9365 693.70294 693.70294 -1491.9365 66.498322 -92.038849)" gradientUnits="userSpaceOnUse" spreadMethod="pad" x1="0" x2="1" xlink:href="#a" y1="0" y2="0"/><clipPath id="P"><path d="m819.341 413.72c-6.404 0-12.14-2.272-16.587-6.567-4.516-4.366-6.904-10.219-6.904-16.926v-206.204c0-6.46 2.357-12.23 6.81-16.681 4.456-4.456 10.224-6.812 16.681-6.812h55.131c24.184 0 46.055 5.461 65.004 16.23 19.032 10.815 34.054 26.057 44.651 45.301 10.532 19.136 15.873 41.078 15.873 65.216 0 24.144-5.343 46.04-15.882 65.08v.002c-10.595 19.131-25.615 34.316-44.643 45.131-18.959 10.769-40.828 16.23-65.003 16.23zm23.492-43.329h31.639c15.404 0 29.33-3.547 41.389-10.54 11.99-6.96 21.467-16.815 28.166-29.286 6.773-12.626 10.207-27.19 10.207-43.288 0-16.111-3.437-30.733-10.217-43.458-6.7-12.572-16.175-22.469-28.155-29.418-12.053-6.996-25.979-10.543-41.39-10.543h-31.639z"/></clipPath><linearGradient id="Q" gradientTransform="matrix(1491.9365 693.70294 693.70294 -1491.9365 54.709011 -66.683746)" gradientUnits="userSpaceOnUse" spreadMethod="pad" x1="0" x2="1" xlink:href="#a" y1="0" y2="0"/><clipPath id="R"><path d="m819.341 413.72c-6.404 0-12.14-2.272-16.587-6.567-4.516-4.366-6.904-10.219-6.904-16.926v-206.204c0-6.46 2.357-12.23 6.81-16.681 4.456-4.456 10.224-6.812 16.681-6.812h55.131c24.184 0 46.055 5.461 65.004 16.23 19.032 10.815 34.054 26.057 44.651 45.301 10.532 19.136 15.873 41.078 15.873 65.216 0 24.144-5.343 46.04-15.882 65.08v.002c-10.595 19.131-25.615 34.316-44.643 45.131-18.959 10.769-40.828 16.23-65.003 16.23zm23.492-43.329h31.639c15.404 0 29.33-3.547 41.389-10.54 11.99-6.96 21.467-16.815 28.166-29.286 6.773-12.626 10.207-27.19 10.207-43.288 0-16.111-3.437-30.733-10.217-43.458-6.7-12.572-16.175-22.469-28.155-29.418-12.053-6.996-25.979-10.543-41.39-10.543h-31.639z"/></clipPath><linearGradient id="S" gradientTransform="matrix(1491.9365 693.70294 693.70294 -1491.9365 42.919697 -41.328651)" gradientUnits="userSpaceOnUse" spreadMethod="pad" x1="0" x2="1" xlink:href="#a" y1="0" y2="0"/><linearGradient id="T" gradientTransform="matrix(1491.9365 693.70294 693.70294 -1491.9365 84.571999 -130.90962)" gradientUnits="userSpaceOnUse" spreadMethod="pad" x1="0" x2="1" xlink:href="#a" y1="0" y2="0"/><linearGradient id="U" gradientTransform="matrix(1491.9365 693.70294 693.70294 -1491.9365 6.979511 35.967365)" gradientUnits="userSpaceOnUse" spreadMethod="pad" x1="0" x2="1" xlink:href="#a" y1="0" y2="0"/><linearGradient id="V" gradientTransform="matrix(1491.9365 693.70294 693.70294 -1491.9365 6.977008 35.972748)" gradientUnits="userSpaceOnUse" spreadMethod="pad" x1="0" x2="1" xlink:href="#a" y1="0" y2="0"/><linearGradient id="W" gradientTransform="matrix(1491.9365 693.70294 693.70294 -1491.9365 -180.29694 438.73999)" gradientUnits="userSpaceOnUse" spreadMethod="pad" x1="0" x2="1" xlink:href="#a" y1="0" y2="0"/><linearGradient id="X" gradientTransform="matrix(1491.9365 693.70294 693.70294 -1491.9365 -145.56807 364.04916)" gradientUnits="userSpaceOnUse" spreadMethod="pad" x1="0" x2="1" xlink:href="#a" y1="0" y2="0"/><linearGradient id="Y" gradientTransform="matrix(1491.9365 693.70294 693.70294 -1491.9365 -108.33952 283.98227)" gradientUnits="userSpaceOnUse" spreadMethod="pad" x1="0" x2="1" xlink:href="#a" y1="0" y2="0"/><linearGradient id="Z" gradientTransform="matrix(1491.9365 693.70294 693.70294 -1491.9365 -79.235481 221.38864)" gradientUnits="userSpaceOnUse" spreadMethod="pad" x1="0" x2="1" xlink:href="#a" y1="0" y2="0"/><g transform="matrix(1.25 0 0 -1.25 0 789.6875)"><path d="m244.241 401.217-.127-.221-82.542-169.938-84.749 169.782-.204.382c-4.677 8.176-11.884 12.498-20.844 12.498-6.516 0-12.337-2.377-16.832-6.871-4.496-4.495-6.873-10.317-6.873-16.837v-209.002c0-6.52 2.377-12.342 6.871-16.833 4.496-4.497 10.317-6.873 16.834-6.873 6.518 0 12.34 2.376 16.834 6.872 4.497 4.495 6.873 10.316 6.873 16.834v118.174l59.265-118.774c4.337-8.929 12.036-13.845 21.685-13.845 8.36 0 15.379 3.972 20.296 11.488l.258.395 60.394 123.037v-120.475c0-6.517 2.377-12.338 6.874-16.837 4.497-4.493 10.318-6.869 16.834-6.869 6.259 0 11.995 2.344 16.591 6.786 4.655 4.507 7.116 10.357 7.116 16.92v209.002c0 6.517-2.376 12.338-6.872 16.835l-.002.002c-4.499 4.495-10.319 6.871-16.833 6.871-8.969 0-16.178-4.324-20.847-12.503" fill="url(#b)"/><g clip-path="url(#c)"><path d="m32.07 160.986 1.114-3.682h-1.114z" fill="url(#d)"/></g><path d="m32.07 181.01c0-6.52 2.377-12.342 6.871-16.833 4.463-4.465 10.232-6.839 16.691-6.873l-23.562 77.903z" fill="url(#e)"/><path d="m32.07 235.207 23.562-77.903h.143c6.518 0 12.34 2.376 16.834 6.872.926.926 1.762 1.907 2.506 2.939l-43.045 142.313z" fill="url(#f)"/><path d="m32.07 309.428 43.045-142.313c2.868 3.982 4.367 8.719 4.367 13.895v45.888l-47.412 156.749z" fill="url(#g)"/><path d="m38.943 406.849c-4.496-4.495-6.873-10.317-6.873-16.837v-6.365l47.412-156.749v72.286l1.485-2.977-34.941 115.519c-2.606-1.149-4.989-2.783-7.083-4.877" fill="url(#h)"/><path d="m46.026 411.726 34.941-115.519 57.006-114.248-68.886 227.746c-3.791 2.649-8.275 4.015-13.312 4.015-3.48 0-6.761-.678-9.749-1.994" fill="url(#i)"/><path d="m137.973 181.959.774-1.549c4.337-8.929 12.036-13.845 21.685-13.845 1.555 0 3.065.137 4.523.41l-43.988 145.429-44.144 88.436-.204.382c-2.048 3.58-4.58 6.42-7.532 8.483z" fill="url(#j)"/><path d="m164.955 166.975c6.377 1.191 11.771 4.961 15.773 11.078l.258.395 1.824 3.716-17.264 57.077-3.974-8.183-40.605 81.346z" fill="url(#k)"/><path d="m165.546 239.241 17.264-57.077 13.89 28.298-17.319 57.261z" fill="url(#l)"/><path d="m179.381 267.723 17.319-57.261 13.891 28.297-17.376 57.446z" fill="url(#m)"/><path d="m193.215 296.205 17.376-57.446 13.89 28.298-17.432 57.63zm48.165-115.195c0-6.517 2.377-12.338 6.874-16.837 2.611-2.609 5.669-4.505 9.051-5.635l-15.925 52.649z" fill="url(#n)"/><path d="m207.049 324.687 17.432-57.63 13.89 28.298-17.487 57.815zm34.331-113.5 15.925-52.649c2.441-.816 5.051-1.234 7.783-1.234 5.012 0 9.689 1.503 13.713 4.383l-37.421 123.72z" fill="url(#o)"/><path d="m220.884 353.17 17.487-57.815 3.009 6.13v-16.078l37.421-123.72c1.002.716 1.963 1.518 2.878 2.403 4.655 4.507 7.116 10.357 7.116 16.92v21.858l-54.077 178.784z" fill="url(#p)"/><path d="m244.241 401.217-.127-.221-9.396-19.344 54.077-178.784v74.221l-39.504 130.607c-1.912-1.78-3.603-3.944-5.05-6.479" fill="url(#q)"/><path d="m249.291 407.696 39.504-130.607v74.221l-18.731 61.923c-1.603.323-3.266.487-4.976.487-6.19 0-11.541-2.059-15.797-6.024" fill="url(#r)"/><path d="m288.795 351.31v38.702c0 6.517-2.376 12.338-6.872 16.835l-.002.002c-3.318 3.315-7.353 5.477-11.857 6.384z" fill="url(#s)"/><path d="m819.341 413.72c-6.404 0-12.14-2.272-16.587-6.567-4.516-4.366-6.904-10.219-6.904-16.926v-206.204c0-6.46 2.357-12.23 6.81-16.681 4.456-4.456 10.224-6.812 16.681-6.812h55.131c24.184 0 46.055 5.461 65.004 16.23 19.032 10.815 34.054 26.057 44.651 45.301 10.532 19.136 15.873 41.078 15.873 65.216 0 24.144-5.343 46.04-15.882 65.08v.002c-10.595 19.131-25.615 34.316-44.643 45.131-18.959 10.769-40.828 16.23-65.003 16.23zm23.492-43.329h31.639c15.404 0 29.33-3.547 41.389-10.54 11.99-6.96 21.467-16.815 28.166-29.286 6.773-12.626 10.207-27.19 10.207-43.288 0-16.111-3.437-30.733-10.217-43.458-6.7-12.572-16.175-22.469-28.155-29.418-12.053-6.996-25.979-10.543-41.39-10.543h-31.639z" fill="url(#t)"/><g clip-path="url(#u)"><path d="m842.833 264.075 18.214-60.217h-18.214z" fill="url(#v)"/></g><path d="m874.472 203.858h8.282l-.104.344c-2.676-.229-5.403-.344-8.178-.344" fill="url(#w)"/><path d="m842.833 370.391h11.257zm39.817-166.189.104-.344h14.363l6.729 2.036-.791 2.614c-6.409-2.251-13.226-3.69-20.405-4.306" fill="url(#x)"/><path d="m854.09 370.391h20.382c.444 0 .887-.003 1.328-.008l-.003.008zm61.772-155.99c-4.062-2.358-8.335-4.323-12.807-5.893l.791-2.614 19.887 6.016-1.916 6.335c-1.911-1.368-3.895-2.649-5.955-3.844" fill="url(#y)"/><path d="m875.797 370.391.003-.008c7.98-.107 15.556-1.175 22.673-3.191l-.968 3.199zm46.02-152.146 1.916-6.335 19.888 6.015-5.137 16.983c-4.667-6.49-10.24-12.062-16.667-16.663" fill="url(#z)"/><path d="m897.505 370.391.968-3.199c6.151-1.742 11.958-4.192 17.388-7.341 2.882-1.674 5.62-3.514 8.208-5.518l-4.857 16.058zm46.512-126.572c-1.672-3.138-3.518-6.11-5.533-8.911l5.137-16.983 10.613 3.209v33.468l-2.725 9.01c-1.705-7.012-4.206-13.625-7.492-19.793" fill="url(#A)"/><path d="m919.212 370.391 4.857-16.058c8.179-6.332 14.87-14.295 19.958-23.768 6.773-12.626 10.207-27.19 10.207-43.288 0-8.302-.913-16.209-2.725-23.665l2.725-9.01v71.766l-13.315 44.023z" fill="url(#B)"/><path d="m940.919 370.391 13.315-44.023v44.023z" fill="url(#C)"/><path d="m795.85 184.023c0-6.46 2.357-12.23 6.81-16.681 1.678-1.678 3.542-3.058 5.559-4.127l-12.369 40.89z" fill="url(#D)"/><path d="m795.85 204.105 12.369-40.89c3.338-1.769 7.096-2.685 11.122-2.685h11.396l-34.887 115.341z" fill="url(#E)"/><path d="m795.85 275.871 34.887-115.341h21.708l-56.595 187.108z" fill="url(#F)"/><path d="m795.85 390.227v-42.589l56.595-187.108h21.707l-13.105 43.328h-18.214v60.218l-42.46 140.379c-2.97-3.966-4.523-8.819-4.523-14.228" fill="url(#G)"/><path d="m802.754 407.153c-.874-.845-1.668-1.746-2.381-2.698l42.46-140.379v71.766l-23.556 77.878c-6.379-.015-12.091-2.286-16.523-6.567m71.718-203.295h-13.425l13.105-43.328h.32c7.193 0 14.182.483 20.95 1.446l-12.772 42.226c-2.677-.229-5.403-.344-8.178-.344" fill="url(#H)"/><path d="m819.341 413.72c-.021 0-.043 0-.064 0l23.556-77.878v34.549h11.257l-13.106 43.329zm63.309-209.518 12.772-42.226c7.022.998 13.806 2.512 20.335 4.537l-12.702 41.995c-6.409-2.251-13.227-3.69-20.405-4.306" fill="url(#I)"/><path d="m840.984 413.72 13.106-43.329h20.382c.444 0 .886-.003 1.328-.008l-13.109 43.337zm74.878-199.319c-4.062-2.358-8.335-4.323-12.807-5.893l12.702-41.995c6.72 2.085 13.167 4.709 19.326 7.872l-13.266 43.86c-1.911-1.368-3.895-2.649-5.955-3.844" fill="url(#J)"/><path d="m862.691 413.72 13.109-43.337c7.979-.107 15.556-1.175 22.673-3.191l-13.976 46.207c-3.296.214-6.637.321-10.025.321zm59.126-195.475 13.266-43.86c1.481.761 2.946 1.553 4.393 2.375 4.873 2.769 9.482 5.828 13.823 9.17l-14.814 48.978c-4.668-6.49-10.241-12.062-16.668-16.663" fill="url(#K)"/><path d="m898.473 367.192c6.151-1.742 11.958-4.192 17.388-7.341 2.882-1.674 5.62-3.514 8.208-5.518l-16.855 55.726c-7.291 1.715-14.872 2.83-22.717 3.34zm45.544-123.373c-1.672-3.138-3.518-6.11-5.532-8.911l14.814-48.978c6.177 4.758 11.81 10.091 16.875 15.975l-18.665 61.708c-1.705-7.012-4.206-13.626-7.492-19.794" fill="url(#L)"/><path d="m924.069 354.333c8.178-6.332 14.87-14.295 19.958-23.768 6.773-12.626 10.207-27.19 10.207-43.288 0-8.302-.913-16.208-2.725-23.664l18.665-61.708c5.273 6.127 9.931 12.852 13.953 20.156.36.654.713 1.311 1.061 1.972l-53.721 177.609c-7.67 3.613-15.766 6.421-24.253 8.417z" fill="url(#M)"/><path d="m985.188 224.033c5.379 10.214 9.306 21.205 11.76 32.885l-38.469 127.185c-5.801 5.018-12.142 9.487-19.004 13.387-2.614 1.485-5.285 2.87-8.008 4.152z" fill="url(#N)"/><path d="m996.948 256.918c2.03 9.665 3.052 19.803 3.052 30.359 0 24.144-5.343 46.04-15.882 65.08v.002c-6.774 12.231-15.357 22.85-25.639 31.744z" fill="url(#O)"/><g clip-path="url(#P)"><path d="m992.936 413.72 7.064-23.358v-71.767l-28.772 95.125z" fill="url(#Q)"/></g><g clip-path="url(#R)"><path d="m1000 390.362-7.064 23.358h7.064z" fill="url(#S)"/></g><path d="m317.964 104.969c-7.644-8.555-6.905-21.687 1.65-29.33 4.676-4.178 30.366-26.026 77.102-45.984 37.228-15.897 76.425-25.825 116.957-29.655h77.883c41.11 3.815 79.888 13.678 115.689 29.46 38.265 16.867 62.841 35.963 74.652 45.139l.163.126c9.059 7.04 10.697 20.089 3.659 29.149-7.04 9.06-20.09 10.695-29.148 3.659l-.165-.127c-21.538-16.735-87.081-67.662-204.293-67.662-48.594 0-95.387 9.461-139.081 28.12-41.626 17.775-63.393 36.66-65.737 38.756-3.963 3.541-8.906 5.283-13.832 5.282-5.709 0-11.396-2.341-15.499-6.933" fill="url(#T)"/><path d="m648.813 412.235c-31.974-.673-62.089-12.466-84.834-33.213 6.008-11.242 14.515-28.152 21.368-45.639 14.792 20.195 38.462 32.23 63.458 32.23 29.236 0 55.89-16.084 69.561-41.977 5.929-11.232 9.064-23.905 9.064-36.649 0-20.652-7.947-40.162-22.375-54.935-14.404-14.745-33.67-23.149-54.249-23.664-.664-.017-1.333-.025-2.001-.025-43.353 0-78.625 35.271-78.625 78.624 0 26.471-8.163 51.78-23.606 73.189-11.376 15.77-26.472 28.86-43.658 37.854-17.757 9.293-37.806 14.205-57.984 14.205-69.061 0-125.247-56.185-125.247-125.248 0-26.28 8.053-51.437 23.288-72.75 5.664-7.926 12.26-15.195 19.602-21.609 6.439-5.626 11.96-9.671 17.373-12.73 21.323-12.048 43.187-18.158 64.984-18.158 30.504 0 59.879 11.097 82.752 31.254-9.462 12.564-17.356 26.818-23.467 42.379-14.963-17.172-36.536-27.01-59.285-27.01-28.342 0-54.604 15.368-68.537 40.108-6.599 11.717-10.089 25.037-10.089 38.516 0 43.355 35.271 78.626 78.626 78.626 43.355 0 78.626-35.271 78.626-78.626 0-26.469 8.163-51.778 23.606-73.188 23.519-32.604 60.885-52.068 99.956-52.07.56 0 1.118.004 1.68.011 19.232.267 47.769 4.744 74.505 24.556 15.969 11.835 29.054 27.482 37.838 45.249 8.566 17.322 12.91 35.975 12.91 55.442 0 28.417-9.785 56.245-27.552 78.367-.082.083-.199.227-.406.479-8.861 10.892-41.886 46.429-94.806 46.429-.822 0-1.645-.009-2.476-.027" fill="url(#U)"/><path d="m651.28 412.626.009-.728c23.841-.002 46.431-7.191 67.141-21.367 10.349-7.085 20.075-15.939 27.388-24.933.168-.206.288-.356.39-.463 8.715-10.846 15.505-22.955 20.181-35.989 4.843-13.501 7.299-27.684 7.299-42.159 0-19.41-4.33-38.009-12.871-55.281-8.761-17.715-21.806-33.316-37.729-45.116-26.656-19.756-55.114-24.22-74.293-24.485-.561-.007-1.116-.011-1.675-.011-19.678 0-39.325 4.953-56.819 14.325-16.765 8.98-31.578 21.981-42.841 37.594-15.399 21.346-23.538 46.581-23.538 72.974 0 21.1-8.217 40.935-23.136 55.854-14.919 14.92-34.755 23.137-55.853 23.137-21.1 0-40.936-8.217-55.855-23.137-14.919-14.919-23.135-34.754-23.135-55.854 0-13.542 3.504-26.924 10.134-38.696 13.998-24.853 40.383-40.293 68.856-40.293 22.655 0 44.148 9.71 59.163 26.686 6.049-15.264 13.814-29.265 23.094-41.639-22.77-19.958-51.954-30.94-82.257-30.94-21.734 0-43.537 6.093-64.806 18.111-5.39 3.046-10.891 7.077-17.312 12.686-7.321 6.396-13.898 13.645-19.547 21.547-15.189 21.251-23.219 46.334-23.219 72.538 0 33.358 12.991 64.719 36.578 88.307 23.587 23.587 54.948 36.577 88.306 36.577 20.119 0 40.11-4.898 57.814-14.164 17.136-8.968 32.188-22.019 43.53-37.744 15.399-21.347 23.538-46.581 23.538-72.976 0-21.098 8.216-40.934 23.136-55.854 14.919-14.918 34.755-23.135 55.854-23.135.661 0 1.337.009 2.01.025 20.674.517 40.029 8.961 54.501 23.776 14.496 14.84 22.479 34.44 22.479 55.188 0 12.803-3.149 25.534-9.107 36.819-13.734 26.013-40.511 42.172-69.883 42.172-12.741 0-25.398-3.109-36.607-8.988-10.452-5.483-19.677-13.37-26.752-22.861-6.767 17.156-15.078 33.697-21.013 44.815 22.656 20.57 52.6 32.258 84.387 32.927.833.018 1.638.027 2.46.027v.728c-.821 0-1.643-.008-2.475-.026-32.918-.693-62.882-12.973-85.282-33.5 6.581-12.295 14.976-29.129 21.728-46.47 14.207 19.747 37.37 32.619 63.554 32.619 30.045 0 56.122-16.94 69.238-41.783 5.752-10.895 9.022-23.302 9.022-36.479 0-42.555-33.966-77.178-76.268-78.235-.662-.017-1.326-.025-1.992-.025-43.222 0-78.261 35.039-78.261 78.26 0 27.405-8.781 52.755-23.676 73.403-22.811 31.622-59.966 52.21-101.935 52.21-69.374 0-125.612-56.239-125.612-125.613 0-27.207 8.653-52.394 23.355-72.962 5.696-7.967 12.299-15.243 19.659-21.673 5.421-4.734 11.135-9.211 17.433-12.771 29.125-16.457 52.542-18.205 65.165-18.205 31.938 0 61.083 11.932 83.245 31.569-10.872 14.374-18.504 29.407-23.842 43.123-14.354-16.728-35.633-27.341-59.403-27.341-29.29 0-54.803 16.1-68.221 39.921l.001.001c-6.384 11.333-10.041 24.406-10.041 38.338 0 43.223 35.038 78.262 78.261 78.262 43.222 0 78.26-35.039 78.26-78.262 0-27.403 8.782-52.753 23.675-73.401 22.505-31.197 58.98-52.221 100.252-52.221.562 0 1.121.003 1.685.011 40.481.56 65.872 18.073 74.717 24.628 15.983 11.845 29.055 27.394 37.947 45.379 8.29 16.762 12.948 35.64 12.948 55.604 0 29.765-10.359 57.105-27.659 78.629 0-.001-.001-.002-.001-.002-.224 0-34.769 47.008-95.468 47.012-.003 0-.006 0-.009 0" fill="url(#V)"/><path d="m6.123 630.066c-3.317 0-6.123-2.807-6.123-6.123 0-3.317 2.806-6.123 6.123-6.123h57.143v-160.717c0-3.571 3.061-6.633 6.633-6.633 3.572 0 6.633 3.062 6.633 6.633v160.717h57.144c3.316 0 6.122 2.806 6.122 6.123 0 3.316-2.806 6.123-6.122 6.123z" fill="url(#W)"/><path d="m176.275 630.066c-3.572 0-6.633-3.061-6.633-6.633v-165.309c0-3.572 3.061-6.634 6.633-6.634h116.583c3.317 0 6.122 2.807 6.122 6.124 0 3.316-2.805 6.123-6.122 6.123h-109.951v71.685h97.195c3.317 0 6.123 2.805 6.123 6.121 0 3.317-2.806 6.123-6.123 6.123h-97.195v70.154h108.676c3.315 0 6.122 2.806 6.122 6.123 0 3.316-2.807 6.123-6.122 6.123z" fill="url(#X)"/><path d="m403.58 631.75c-3.653-.51-5.829-2.896-7.406-6.276l-76.277-165.309c-.766-1.531-1.021-3.062-1.021-4.083 0-3.061 2.806-5.612 6.122-5.612 3.062 0 5.102 1.785 6.378 4.847l20.919 46.176h105.359l20.918-45.921c1.276-2.805 3.572-5.102 6.633-5.102 3.572 0 6.379 2.807 6.379 6.122 0 1.276-.256 2.552-1.021 4.083l-76.022 164.799c-1.578 3.38-3.753 5.766-7.406 6.276zm1.523-14.95 46.938-103.318h-94.133z" fill="url(#Y)"/><path d="m683.674 630.831c-2.807 0-5.103-1.531-6.634-3.826l-69.644-102.553-69.643 102.553c-1.787 2.295-3.827 3.826-6.634 3.826h-1.275c-3.572 0-6.633-3.061-6.633-6.633v-167.349c0-3.572 2.806-6.379 6.378-6.379 3.571 0 6.377 2.807 6.377 6.379v149.746l65.563-95.409c1.53-2.296 3.316-3.316 5.613-3.316 2.296 0 4.08 1.02 5.612 3.316l65.562 95.409v-149.492c0-3.571 3.06-6.633 6.633-6.633 3.572 0 6.632 3.062 6.632 6.633v167.095c0 3.572-3.06 6.633-6.632 6.633z" fill="url(#Z)"/></g></svg>